<?xml version="1.0" encoding="UTF-8" standalone="no"?><svg xmlns="http://www.w3.org/2000/svg" xmlns:xlink="http://www.w3.org/1999/xlink" clip-rule="evenodd" stroke-miterlimit="10" viewBox="0 0 1920 1080"><desc>SVG generated by Keynote</desc><defs></defs><g transform="matrix(1.00, 0.00, -0.00, -1.00, 0.0, 1080.0)"><path d="M 0.0 1080.0 L 1920.0 1080.0 L 1920.0 0.0 L 0.0 0.0 Z M 0.0 1080.0 " fill="#000000"></path><text xml:space="preserve" font-family="Avenir-Light,Avenir" font-size="62.0" fill="#FEFFFF" transform="matrix(1.00, 0.00, -0.00, -1.00, 101.0, 945.7)">W</text><text xml:space="preserve" font-family="Avenir-Light,Avenir" font-size="62.0" fill="#FEFFFF" transform="matrix(1.00, 0.00, -0.00, -1.00, 169.4, 945.7)">H</text><text xml:space="preserve" font-family="Avenir-Light,Avenir" font-size="62.0" fill="#FEFFFF" transform="matrix(1.00, 0.00, -0.00, -1.00, 224.1, 945.7)">Y</text><text xml:space="preserve" font-family="Avenir-Light,Avenir" font-size="62.0" fill="#FEFFFF" transform="matrix(1.00, 0.00, -0.00, -1.00, 269.6, 945.7)"> </text><text xml:space="preserve" font-family="Avenir-Light,Avenir" font-size="62.0" fill="#FEFFFF" transform="matrix(1.00, 0.00, -0.00, -1.00, 295.7, 945.7)">D</text><text xml:space="preserve" font-family="Avenir-Light,Avenir" font-size="62.0" fill="#FEFFFF" transform="matrix(1.00, 0.00, -0.00, -1.00, 351.5, 945.7)">I</text><text xml:space="preserve" font-family="Avenir-Light,Avenir" font-size="62.0" fill="#FEFFFF" transform="matrix(1.00, 0.00, -0.00, -1.00, 377.6, 945.7)">D</text><text xml:space="preserve" font-family="Avenir-Light,Avenir" font-size="62.0" fill="#FEFFFF" transform="matrix(1.00, 0.00, -0.00, -1.00, 433.4, 945.7)"> </text><text xml:space="preserve" font-family="Avenir-Light,Avenir" font-size="62.0" fill="#FEFFFF" transform="matrix(1.00, 0.00, -0.00, -1.00, 459.5, 945.7)">I</text><text xml:space="preserve" font-family="Avenir-Light,Avenir" font-size="62.0" fill="#FEFFFF" transform="matrix(1.00, 0.00, -0.00, -1.00, 485.5, 945.7)"> </text><text xml:space="preserve" font-family="Avenir-Light,Avenir" font-size="62.0" fill="#FEFFFF" transform="matrix(1.00, 0.00, -0.00, -1.00, 511.6, 945.7)">C</text><text xml:space="preserve" font-family="Avenir-Light,Avenir" font-size="62.0" fill="#FEFFFF" transform="matrix(1.00, 0.00, -0.00, -1.00, 565.1, 945.7)">H</text><text xml:space="preserve" font-family="Avenir-Light,Avenir" font-size="62.0" fill="#FEFFFF" transform="matrix(1.00, 0.00, -0.00, -1.00, 619.8, 945.7)">O</text><text xml:space="preserve" font-family="Avenir-Light,Avenir" font-size="62.0" fill="#FEFFFF" transform="matrix(1.00, 0.00, -0.00, -1.00, 681.4, 945.7)">O</text><text xml:space="preserve" font-family="Avenir-Light,Avenir" font-size="62.0" fill="#FEFFFF" transform="matrix(1.00, 0.00, -0.00, -1.00, 743.1, 945.7)">S</text><text xml:space="preserve" font-family="Avenir-Light,Avenir" font-size="62.0" fill="#FEFFFF" transform="matrix(1.00, 0.00, -0.00, -1.00, 787.5, 945.7)">E</text><text xml:space="preserve" font-family="Avenir-Light,Avenir" font-size="62.0" fill="#FEFFFF" transform="matrix(1.00, 0.00, -0.00, -1.00, 834.1, 945.7)"> </text><text xml:space="preserve" font-family="Avenir-Light,Avenir" font-size="62.0" fill="#FEFFFF" transform="matrix(1.00, 0.00, -0.00, -1.00, 860.2, 945.7)">T</text><text xml:space="preserve" font-family="Avenir-Light,Avenir" font-size="62.0" fill="#FEFFFF" transform="matrix(1.00, 0.00, -0.00, -1.00, 905.7, 945.7)">H</text><text xml:space="preserve" font-family="Avenir-Light,Avenir" font-size="62.0" fill="#FEFFFF" transform="matrix(1.00, 0.00, -0.00, -1.00, 960.4, 945.7)">I</text><text xml:space="preserve" font-family="Avenir-Light,Avenir" font-size="62.0" fill="#FEFFFF" transform="matrix(1.00, 0.00, -0.00, -1.00, 986.4, 945.7)">S</text><text xml:space="preserve" font-family="Avenir-Light,Avenir" font-size="62.0" fill="#FEFFFF" transform="matrix(1.00, 0.00, -0.00, -1.00, 1030.8, 945.7)">?</text><text xml:space="preserve" font-family="Avenir-Light,Avenir" font-size="50.0" fill="#FEFFFF" transform="matrix(1.00, 0.00, -0.00, -1.00, 101.0, 599.3)">W</text><text xml:space="preserve" font-family="Avenir-Light,Avenir" font-size="50.0" fill="#FEFFFF" transform="matrix(1.00, 0.00, -0.00, -1.00, 147.3, 599.3)">e</text><text xml:space="preserve" font-family="Avenir-Light,Avenir" font-size="50.0" fill="#FEFFFF" transform="matrix(1.00, 0.00, -0.00, -1.00, 175.1, 599.3)">l</text><text xml:space="preserve" font-family="Avenir-Light,Avenir" font-size="50.0" fill="#FEFFFF" transform="matrix(1.00, 0.00, -0.00, -1.00, 187.1, 599.3)">l</text><text xml:space="preserve" font-family="Avenir-Light,Avenir" font-size="50.0" fill="#FEFFFF" transform="matrix(1.00, 0.00, -0.00, -1.00, 199.1, 599.3)">,</text><text xml:space="preserve" font-family="Avenir-Light,Avenir" font-size="50.0" fill="#FEFFFF" transform="matrix(1.00, 0.00, -0.00, -1.00, 212.1, 599.3)"> </text><text xml:space="preserve" font-family="Avenir-Light,Avenir" font-size="50.0" fill="#FEFFFF" transform="matrix(1.00, 0.00, -0.00, -1.00, 225.1, 599.3)">t</text><text xml:space="preserve" font-family="Avenir-Light,Avenir" font-size="50.0" fill="#FEFFFF" transform="matrix(1.00, 0.00, -0.00, -1.00, 241.8, 599.3)">o</text><text xml:space="preserve" font-family="Avenir-Light,Avenir" font-size="50.0" fill="#FEFFFF" transform="matrix(1.00, 0.00, -0.00, -1.00, 271.5, 599.3)"> </text><text xml:space="preserve" font-family="Avenir-Light,Avenir" font-size="50.0" fill="#FEFFFF" transform="matrix(1.00, 0.00, -0.00, -1.00, 284.5, 599.3)">b</text><text xml:space="preserve" font-family="Avenir-Light,Avenir" font-size="50.0" fill="#FEFFFF" transform="matrix(1.00, 0.00, -0.00, -1.00, 315.0, 599.3)">e</text><text xml:space="preserve" font-family="Avenir-Light,Avenir" font-size="50.0" fill="#FEFFFF" transform="matrix(1.00, 0.00, -0.00, -1.00, 342.9, 599.3)"> </text><text xml:space="preserve" font-family="Avenir-Light,Avenir" font-size="50.0" fill="#FEFFFF" transform="matrix(1.00, 0.00, -0.00, -1.00, 355.9, 599.3)">h</text><text xml:space="preserve" font-family="Avenir-Light,Avenir" font-size="50.0" fill="#FEFFFF" transform="matrix(1.00, 0.00, -0.00, -1.00, 383.6, 599.3)">o</text><text xml:space="preserve" font-family="Avenir-Light,Avenir" font-size="50.0" fill="#FEFFFF" transform="matrix(1.00, 0.00, -0.00, -1.00, 413.3, 599.3)">n</text><text xml:space="preserve" font-family="Avenir-Light,Avenir" font-size="50.0" fill="#FEFFFF" transform="matrix(1.00, 0.00, -0.00, -1.00, 441.1, 599.3)">e</text><text xml:space="preserve" font-family="Avenir-Light,Avenir" font-size="50.0" fill="#FEFFFF" transform="matrix(1.00, 0.00, -0.00, -1.00, 468.9, 599.3)">s</text><text xml:space="preserve" font-family="Avenir-Light,Avenir" font-size="50.0" fill="#FEFFFF" transform="matrix(1.00, 0.00, -0.00, -1.00, 490.2, 599.3)">t</text><text xml:space="preserve" font-family="Avenir-Light,Avenir" font-size="50.0" fill="#FEFFFF" transform="matrix(1.00, 0.00, -0.00, -1.00, 506.9, 599.3)">,</text><text xml:space="preserve" font-family="Avenir-Light,Avenir" font-size="50.0" fill="#FEFFFF" transform="matrix(1.00, 0.00, -0.00, -1.00, 519.9, 599.3)"> </text><text xml:space="preserve" font-family="Avenir-Light,Avenir" font-size="50.0" fill="#FEFFFF" transform="matrix(1.00, 0.00, -0.00, -1.00, 532.9, 599.3)">I</text><text xml:space="preserve" font-family="Avenir-Light,Avenir" font-size="50.0" fill="#FEFFFF" transform="matrix(1.00, 0.00, -0.00, -1.00, 545.9, 599.3)"> </text><text xml:space="preserve" font-family="Avenir-Light,Avenir" font-size="50.0" fill="#FEFFFF" transform="matrix(1.00, 0.00, -0.00, -1.00, 558.9, 599.3)">c</text><text xml:space="preserve" font-family="Avenir-Light,Avenir" font-size="50.0" fill="#FEFFFF" transform="matrix(1.00, 0.00, -0.00, -1.00, 583.0, 599.3)">o</text><text xml:space="preserve" font-family="Avenir-Light,Avenir" font-size="50.0" fill="#FEFFFF" transform="matrix(1.00, 0.00, -0.00, -1.00, 612.6, 599.3)">u</text><text xml:space="preserve" font-family="Avenir-Light,Avenir" font-size="50.0" fill="#FEFFFF" transform="matrix(1.00, 0.00, -0.00, -1.00, 640.4, 599.3)">l</text><text xml:space="preserve" font-family="Avenir-Light,Avenir" font-size="50.0" fill="#FEFFFF" transform="matrix(1.00, 0.00, -0.00, -1.00, 652.4, 599.3)">d</text><text xml:space="preserve" font-family="Avenir-Light,Avenir" font-size="50.0" fill="#FEFFFF" transform="matrix(1.00, 0.00, -0.00, -1.00, 683.0, 599.3)">n</text><text xml:space="preserve" font-family="Avenir-Light,Avenir" font-size="50.0" fill="#FEFFFF" transform="matrix(1.00, 0.00, -0.00, -1.00, 710.8, 599.3)">’</text><text xml:space="preserve" font-family="Avenir-Light,Avenir" font-size="50.0" fill="#FEFFFF" transform="matrix(1.00, 0.00, -0.00, -1.00, 722.0, 599.3)">t</text><text xml:space="preserve" font-family="Avenir-Light,Avenir" font-size="50.0" fill="#FEFFFF" transform="matrix(1.00, 0.00, -0.00, -1.00, 738.6, 599.3)"> </text><text xml:space="preserve" font-family="Avenir-Light,Avenir" font-size="50.0" fill="#FEFFFF" transform="matrix(1.00, 0.00, -0.00, -1.00, 751.6, 599.3)">f</text><text xml:space="preserve" font-family="Avenir-Light,Avenir" font-size="50.0" fill="#FEFFFF" transform="matrix(1.00, 0.00, -0.00, -1.00, 766.4, 599.3)">i</text><text xml:space="preserve" font-family="Avenir-Light,Avenir" font-size="50.0" fill="#FEFFFF" transform="matrix(1.00, 0.00, -0.00, -1.00, 778.4, 599.3)">n</text><text xml:space="preserve" font-family="Avenir-Light,Avenir" font-size="50.0" fill="#FEFFFF" transform="matrix(1.00, 0.00, -0.00, -1.00, 806.2, 599.3)">d</text><text xml:space="preserve" font-family="Avenir-Light,Avenir" font-size="50.0" fill="#FEFFFF" transform="matrix(1.00, 0.00, -0.00, -1.00, 836.8, 599.3)"> </text><text xml:space="preserve" font-family="Avenir-Light,Avenir" font-size="50.0" fill="#FEFFFF" transform="matrix(1.00, 0.00, -0.00, -1.00, 849.8, 599.3)">a</text><text xml:space="preserve" font-family="Avenir-Light,Avenir" font-size="50.0" fill="#FEFFFF" transform="matrix(1.00, 0.00, -0.00, -1.00, 875.7, 599.3)">n</text><text xml:space="preserve" font-family="Avenir-Light,Avenir" font-size="50.0" fill="#FEFFFF" transform="matrix(1.00, 0.00, -0.00, -1.00, 903.5, 599.3)">y</text><text xml:space="preserve" font-family="Avenir-Light,Avenir" font-size="50.0" fill="#FEFFFF" transform="matrix(1.00, 0.00, -0.00, -1.00, 926.7, 599.3)"> </text><text xml:space="preserve" font-family="Avenir-Light,Avenir" font-size="50.0" fill="#FEFFFF" transform="matrix(1.00, 0.00, -0.00, -1.00, 939.7, 599.3)">o</text><text xml:space="preserve" font-family="Avenir-Light,Avenir" font-size="50.0" fill="#FEFFFF" transform="matrix(1.00, 0.00, -0.00, -1.00, 969.4, 599.3)">t</text><text xml:space="preserve" font-family="Avenir-Light,Avenir" font-size="50.0" fill="#FEFFFF" transform="matrix(1.00, 0.00, -0.00, -1.00, 986.1, 599.3)">h</text><text xml:space="preserve" font-family="Avenir-Light,Avenir" font-size="50.0" fill="#FEFFFF" transform="matrix(1.00, 0.00, -0.00, -1.00, 1013.9, 599.3)">e</text><text xml:space="preserve" font-family="Avenir-Light,Avenir" font-size="50.0" fill="#FEFFFF" transform="matrix(1.00, 0.00, -0.00, -1.00, 1041.7, 599.3)">r</text><text xml:space="preserve" font-family="Avenir-Light,Avenir" font-size="50.0" fill="#FEFFFF" transform="matrix(1.00, 0.00, -0.00, -1.00, 1058.3, 599.3)"> </text><text xml:space="preserve" font-family="Avenir-Light,Avenir" font-size="50.0" fill="#FEFFFF" transform="matrix(1.00, 0.00, -0.00, -1.00, 1071.3, 599.3)">g</text><text xml:space="preserve" font-family="Avenir-Light,Avenir" font-size="50.0" fill="#FEFFFF" transform="matrix(1.00, 0.00, -0.00, -1.00, 1101.9, 599.3)">o</text><text xml:space="preserve" font-family="Avenir-Light,Avenir" font-size="50.0" fill="#FEFFFF" transform="matrix(1.00, 0.00, -0.00, -1.00, 1131.6, 599.3)">o</text><text xml:space="preserve" font-family="Avenir-Light,Avenir" font-size="50.0" fill="#FEFFFF" transform="matrix(1.00, 0.00, -0.00, -1.00, 1161.3, 599.3)">d</text><text xml:space="preserve" font-family="Avenir-Light,Avenir" font-size="50.0" fill="#FEFFFF" transform="matrix(1.00, 0.00, -0.00, -1.00, 1191.8, 599.3)"> </text><text xml:space="preserve" font-family="Avenir-Light,Avenir" font-size="50.0" fill="#FEFFFF" transform="matrix(1.00, 0.00, -0.00, -1.00, 1204.8, 599.3)">a</text><text xml:space="preserve" font-family="Avenir-Light,Avenir" font-size="50.0" fill="#FEFFFF" transform="matrix(1.00, 0.00, -0.00, -1.00, 1230.8, 599.3)">r</text><text xml:space="preserve" font-family="Avenir-Light,Avenir" font-size="50.0" fill="#FEFFFF" transform="matrix(1.00, 0.00, -0.00, -1.00, 1247.4, 599.3)">t</text><text xml:space="preserve" font-family="Avenir-Light,Avenir" font-size="50.0" fill="#FEFFFF" transform="matrix(1.00, 0.00, -0.00, -1.00, 1264.1, 599.3)">i</text><text xml:space="preserve" font-family="Avenir-Light,Avenir" font-size="50.0" fill="#FEFFFF" transform="matrix(1.00, 0.00, -0.00, -1.00, 1276.1, 599.3)">c</text><text xml:space="preserve" font-family="Avenir-Light,Avenir" font-size="50.0" fill="#FEFFFF" transform="matrix(1.00, 0.00, -0.00, -1.00, 1300.2, 599.3)">l</text><text xml:space="preserve" font-family="Avenir-Light,Avenir" font-size="50.0" fill="#FEFFFF" transform="matrix(1.00, 0.00, -0.00, -1.00, 1312.2, 599.3)">e</text><text xml:space="preserve" font-family="Avenir-Light,Avenir" font-size="50.0" fill="#FEFFFF" transform="matrix(1.00, 0.00, -0.00, -1.00, 1340.0, 599.3)">s</text><text xml:space="preserve" font-family="Avenir-Light,Avenir" font-size="50.0" fill="#FEFFFF" transform="matrix(1.00, 0.00, -0.00, -1.00, 1361.3, 599.3)"> </text><text xml:space="preserve" font-family="Avenir-Light,Avenir" font-size="50.0" fill="#FEFFFF" transform="matrix(1.00, 0.00, -0.00, -1.00, 1374.3, 599.3)">a</text><text xml:space="preserve" font-family="Avenir-Light,Avenir" font-size="50.0" fill="#FEFFFF" transform="matrix(1.00, 0.00, -0.00, -1.00, 1400.2, 599.3)">n</text><text xml:space="preserve" font-family="Avenir-Light,Avenir" font-size="50.0" fill="#FEFFFF" transform="matrix(1.00, 0.00, -0.00, -1.00, 1428.0, 599.3)">d</text><text xml:space="preserve" font-family="Avenir-Light,Avenir" font-size="50.0" fill="#FEFFFF" transform="matrix(1.00, 0.00, -0.00, -1.00, 1458.6, 599.3)"> </text><text xml:space="preserve" font-family="Avenir-Light,Avenir" font-size="50.0" fill="#FEFFFF" transform="matrix(1.00, 0.00, -0.00, -1.00, 1471.6, 599.3)">M</text><text xml:space="preserve" font-family="Avenir-Light,Avenir" font-size="50.0" fill="#FEFFFF" transform="matrix(1.00, 0.00, -0.00, -1.00, 1516.0, 599.3)">s</text><text xml:space="preserve" font-family="Avenir-Light,Avenir" font-size="50.0" fill="#FEFFFF" transform="matrix(1.00, 0.00, -0.00, -1.00, 1537.3, 599.3)">.</text><text xml:space="preserve" font-family="Avenir-Light,Avenir" font-size="50.0" fill="#FEFFFF" transform="matrix(1.00, 0.00, -0.00, -1.00, 1550.3, 599.3)"> </text><text xml:space="preserve" font-family="Avenir-Light,Avenir" font-size="50.0" fill="#FEFFFF" transform="matrix(1.00, 0.00, -0.00, -1.00, 1563.3, 599.3)">L</text><text xml:space="preserve" font-family="Avenir-Light,Avenir" font-size="50.0" fill="#FEFFFF" transform="matrix(1.00, 0.00, -0.00, -1.00, 1588.3, 599.3)">a</text><text xml:space="preserve" font-family="Avenir-Light,Avenir" font-size="50.0" fill="#FEFFFF" transform="matrix(1.00, 0.00, -0.00, -1.00, 1614.3, 599.3)">n</text><text xml:space="preserve" font-family="Avenir-Light,Avenir" font-size="50.0" fill="#FEFFFF" transform="matrix(1.00, 0.00, -0.00, -1.00, 1642.1, 599.3)">g</text><text xml:space="preserve" font-family="Avenir-Light,Avenir" font-size="50.0" fill="#FEFFFF" transform="matrix(1.00, 0.00, -0.00, -1.00, 1672.6, 599.3)">l</text><text xml:space="preserve" font-family="Avenir-Light,Avenir" font-size="50.0" fill="#FEFFFF" transform="matrix(1.00, 0.00, -0.00, -1.00, 1684.6, 599.3)">e</text><text xml:space="preserve" font-family="Avenir-Light,Avenir" font-size="50.0" fill="#FEFFFF" transform="matrix(1.00, 0.00, -0.00, -1.00, 1712.4, 599.3)">y</text><text xml:space="preserve" font-family="Avenir-Light,Avenir" font-size="50.0" fill="#FEFFFF" transform="matrix(1.00, 0.00, -0.00, -1.00, 1735.6, 599.3)"> </text><text xml:space="preserve" font-family="Avenir-Light,Avenir" font-size="50.0" fill="#FEFFFF" transform="matrix(1.00, 0.00, -0.00, -1.00, 101.0, 531.3)">s</text><text xml:space="preserve" font-family="Avenir-Light,Avenir" font-size="50.0" fill="#FEFFFF" transform="matrix(1.00, 0.00, -0.00, -1.00, 122.3, 531.3)">u</text><text xml:space="preserve" font-family="Avenir-Light,Avenir" font-size="50.0" fill="#FEFFFF" transform="matrix(1.00, 0.00, -0.00, -1.00, 150.1, 531.3)">g</text><text xml:space="preserve" font-family="Avenir-Light,Avenir" font-size="50.0" fill="#FEFFFF" transform="matrix(1.00, 0.00, -0.00, -1.00, 180.7, 531.3)">g</text><text xml:space="preserve" font-family="Avenir-Light,Avenir" font-size="50.0" fill="#FEFFFF" transform="matrix(1.00, 0.00, -0.00, -1.00, 211.2, 531.3)">e</text><text xml:space="preserve" font-family="Avenir-Light,Avenir" font-size="50.0" fill="#FEFFFF" transform="matrix(1.00, 0.00, -0.00, -1.00, 239.0, 531.3)">s</text><text xml:space="preserve" font-family="Avenir-Light,Avenir" font-size="50.0" fill="#FEFFFF" transform="matrix(1.00, 0.00, -0.00, -1.00, 260.3, 531.3)">t</text><text xml:space="preserve" font-family="Avenir-Light,Avenir" font-size="50.0" fill="#FEFFFF" transform="matrix(1.00, 0.00, -0.00, -1.00, 277.0, 531.3)">e</text><text xml:space="preserve" font-family="Avenir-Light,Avenir" font-size="50.0" fill="#FEFFFF" transform="matrix(1.00, 0.00, -0.00, -1.00, 304.8, 531.3)">d</text><text xml:space="preserve" font-family="Avenir-Light,Avenir" font-size="50.0" fill="#FEFFFF" transform="matrix(1.00, 0.00, -0.00, -1.00, 335.3, 531.3)"> </text><text xml:space="preserve" font-family="Avenir-Light,Avenir" font-size="50.0" fill="#FEFFFF" transform="matrix(1.00, 0.00, -0.00, -1.00, 348.3, 531.3)">f</text><text xml:space="preserve" font-family="Avenir-Light,Avenir" font-size="50.0" fill="#FEFFFF" transform="matrix(1.00, 0.00, -0.00, -1.00, 363.1, 531.3)">o</text><text xml:space="preserve" font-family="Avenir-Light,Avenir" font-size="50.0" fill="#FEFFFF" transform="matrix(1.00, 0.00, -0.00, -1.00, 392.8, 531.3)">r</text><text xml:space="preserve" font-family="Avenir-Light,Avenir" font-size="50.0" fill="#FEFFFF" transform="matrix(1.00, 0.00, -0.00, -1.00, 409.4, 531.3)"> </text><text xml:space="preserve" font-family="Avenir-Light,Avenir" font-size="50.0" fill="#FEFFFF" transform="matrix(1.00, 0.00, -0.00, -1.00, 422.4, 531.3)">m</text><text xml:space="preserve" font-family="Avenir-Light,Avenir" font-size="50.0" fill="#FEFFFF" transform="matrix(1.00, 0.00, -0.00, -1.00, 465.1, 531.3)">e</text><text xml:space="preserve" font-family="Avenir-Light,Avenir" font-size="50.0" fill="#FEFFFF" transform="matrix(1.00, 0.00, -0.00, -1.00, 492.9, 531.3)"> </text><text xml:space="preserve" font-family="Avenir-Light,Avenir" font-size="50.0" fill="#FEFFFF" transform="matrix(1.00, 0.00, -0.00, -1.00, 505.9, 531.3)">t</text><text xml:space="preserve" font-family="Avenir-Light,Avenir" font-size="50.0" fill="#FEFFFF" transform="matrix(1.00, 0.00, -0.00, -1.00, 522.5, 531.3)">o</text><text xml:space="preserve" font-family="Avenir-Light,Avenir" font-size="50.0" fill="#FEFFFF" transform="matrix(1.00, 0.00, -0.00, -1.00, 552.2, 531.3)"> </text><text xml:space="preserve" font-family="Avenir-Light,Avenir" font-size="50.0" fill="#FEFFFF" transform="matrix(1.00, 0.00, -0.00, -1.00, 565.2, 531.3)">d</text><text xml:space="preserve" font-family="Avenir-Light,Avenir" font-size="50.0" fill="#FEFFFF" transform="matrix(1.00, 0.00, -0.00, -1.00, 595.8, 531.3)">o</text><text xml:space="preserve" font-family="Avenir-Light,Avenir" font-size="50.0" fill="#FEFFFF" transform="matrix(1.00, 0.00, -0.00, -1.00, 625.5, 531.3)"> </text><text xml:space="preserve" font-family="Avenir-Light,Avenir" font-size="50.0" fill="#FEFFFF" transform="matrix(1.00, 0.00, -0.00, -1.00, 638.5, 531.3)">t</text><text xml:space="preserve" font-family="Avenir-Light,Avenir" font-size="50.0" fill="#FEFFFF" transform="matrix(1.00, 0.00, -0.00, -1.00, 655.1, 531.3)">h</text><text xml:space="preserve" font-family="Avenir-Light,Avenir" font-size="50.0" fill="#FEFFFF" transform="matrix(1.00, 0.00, -0.00, -1.00, 682.9, 531.3)">i</text><text xml:space="preserve" font-family="Avenir-Light,Avenir" font-size="50.0" fill="#FEFFFF" transform="matrix(1.00, 0.00, -0.00, -1.00, 694.9, 531.3)">s</text><text xml:space="preserve" font-family="Avenir-Light,Avenir" font-size="50.0" fill="#FEFFFF" transform="matrix(1.00, 0.00, -0.00, -1.00, 716.2, 531.3)"> </text><text xml:space="preserve" font-family="Avenir-Light,Avenir" font-size="50.0" fill="#FEFFFF" transform="matrix(1.00, 0.00, -0.00, -1.00, 729.2, 531.3)">a</text><text xml:space="preserve" font-family="Avenir-Light,Avenir" font-size="50.0" fill="#FEFFFF" transform="matrix(1.00, 0.00, -0.00, -1.00, 755.2, 531.3)">r</text><text xml:space="preserve" font-family="Avenir-Light,Avenir" font-size="50.0" fill="#FEFFFF" transform="matrix(1.00, 0.00, -0.00, -1.00, 771.8, 531.3)">t</text><text xml:space="preserve" font-family="Avenir-Light,Avenir" font-size="50.0" fill="#FEFFFF" transform="matrix(1.00, 0.00, -0.00, -1.00, 788.5, 531.3)">i</text><text xml:space="preserve" font-family="Avenir-Light,Avenir" font-size="50.0" fill="#FEFFFF" transform="matrix(1.00, 0.00, -0.00, -1.00, 800.5, 531.3)">c</text><text xml:space="preserve" font-family="Avenir-Light,Avenir" font-size="50.0" fill="#FEFFFF" transform="matrix(1.00, 0.00, -0.00, -1.00, 824.6, 531.3)">l</text><text xml:space="preserve" font-family="Avenir-Light,Avenir" font-size="50.0" fill="#FEFFFF" transform="matrix(1.00, 0.00, -0.00, -1.00, 836.6, 531.3)">e</text><text xml:space="preserve" font-family="Avenir-Light,Avenir" font-size="50.0" fill="#FEFFFF" transform="matrix(1.00, 0.00, -0.00, -1.00, 864.4, 531.3)"> </text><text xml:space="preserve" font-family="Avenir-Light,Avenir" font-size="50.0" fill="#FEFFFF" transform="matrix(1.00, 0.00, -0.00, -1.00, 877.4, 531.3)">s</text><text xml:space="preserve" font-family="Avenir-Light,Avenir" font-size="50.0" fill="#FEFFFF" transform="matrix(1.00, 0.00, -0.00, -1.00, 898.7, 531.3)">o</text><text xml:space="preserve" font-family="Avenir-Light,Avenir" font-size="50.0" fill="#FEFFFF" transform="matrix(1.00, 0.00, -0.00, -1.00, 928.4, 531.3)"> </text><text xml:space="preserve" font-family="Avenir-Light,Avenir" font-size="50.0" fill="#FEFFFF" transform="matrix(1.00, 0.00, -0.00, -1.00, 941.4, 531.3)">I</text><text xml:space="preserve" font-family="Avenir-Light,Avenir" font-size="50.0" fill="#FEFFFF" transform="matrix(1.00, 0.00, -0.00, -1.00, 954.4, 531.3)"> </text><text xml:space="preserve" font-family="Avenir-Light,Avenir" font-size="50.0" fill="#FEFFFF" transform="matrix(1.00, 0.00, -0.00, -1.00, 967.4, 531.3)">d</text><text xml:space="preserve" font-family="Avenir-Light,Avenir" font-size="50.0" fill="#FEFFFF" transform="matrix(1.00, 0.00, -0.00, -1.00, 998.0, 531.3)">i</text><text xml:space="preserve" font-family="Avenir-Light,Avenir" font-size="50.0" fill="#FEFFFF" transform="matrix(1.00, 0.00, -0.00, -1.00, 1010.0, 531.3)">d</text><text xml:space="preserve" font-family="Avenir-Light,Avenir" font-size="50.0" fill="#FEFFFF" transform="matrix(1.00, 0.00, -0.00, -1.00, 1040.5, 531.3)"> </text><text xml:space="preserve" font-family="Avenir-Light,Avenir" font-size="50.0" fill="#FEFFFF" transform="matrix(1.00, 0.00, -0.00, -1.00, 1053.5, 531.3)">i</text><text xml:space="preserve" font-family="Avenir-Light,Avenir" font-size="50.0" fill="#FEFFFF" transform="matrix(1.00, 0.00, -0.00, -1.00, 1065.5, 531.3)">t</text><text xml:space="preserve" font-family="Avenir-Light,Avenir" font-size="50.0" fill="#FEFFFF" transform="matrix(1.00, 0.00, -0.00, -1.00, 1082.2, 531.3)">.</text><text xml:space="preserve" font-family="Avenir-Light,Avenir" font-size="50.0" fill="#FEFFFF" transform="matrix(1.00, 0.00, -0.00, -1.00, 1095.2, 531.3)"> </text><text xml:space="preserve" font-family="Avenir-Light,Avenir" font-size="50.0" fill="#FEFFFF" transform="matrix(1.00, 0.00, -0.00, -1.00, 101.0, 404.3)">O</text><text xml:space="preserve" font-family="Avenir-Light,Avenir" font-size="50.0" fill="#FEFFFF" transform="matrix(1.00, 0.00, -0.00, -1.00, 142.7, 404.3)">n</text><text xml:space="preserve" font-family="Avenir-Light,Avenir" font-size="50.0" fill="#FEFFFF" transform="matrix(1.00, 0.00, -0.00, -1.00, 170.5, 404.3)">e</text><text xml:space="preserve" font-family="Avenir-Light,Avenir" font-size="50.0" fill="#FEFFFF" transform="matrix(1.00, 0.00, -0.00, -1.00, 198.3, 404.3)"> </text><text xml:space="preserve" font-family="Avenir-Light,Avenir" font-size="50.0" fill="#FEFFFF" transform="matrix(1.00, 0.00, -0.00, -1.00, 211.3, 404.3)">o</text><text xml:space="preserve" font-family="Avenir-Light,Avenir" font-size="50.0" fill="#FEFFFF" transform="matrix(1.00, 0.00, -0.00, -1.00, 241.0, 404.3)">f</text><text xml:space="preserve" font-family="Avenir-Light,Avenir" font-size="50.0" fill="#FEFFFF" transform="matrix(1.00, 0.00, -0.00, -1.00, 255.8, 404.3)"> </text><text xml:space="preserve" font-family="Avenir-Light,Avenir" font-size="50.0" fill="#FEFFFF" transform="matrix(1.00, 0.00, -0.00, -1.00, 268.8, 404.3)">t</text><text xml:space="preserve" font-family="Avenir-Light,Avenir" font-size="50.0" fill="#FEFFFF" transform="matrix(1.00, 0.00, -0.00, -1.00, 285.5, 404.3)">h</text><text xml:space="preserve" font-family="Avenir-Light,Avenir" font-size="50.0" fill="#FEFFFF" transform="matrix(1.00, 0.00, -0.00, -1.00, 313.3, 404.3)">e</text><text xml:space="preserve" font-family="Avenir-Light,Avenir" font-size="50.0" fill="#FEFFFF" transform="matrix(1.00, 0.00, -0.00, -1.00, 341.1, 404.3)"> </text><text xml:space="preserve" font-family="Avenir-Light,Avenir" font-size="50.0" fill="#FEFFFF" transform="matrix(1.00, 0.00, -0.00, -1.00, 354.1, 404.3)">m</text><text xml:space="preserve" font-family="Avenir-Light,Avenir" font-size="50.0" fill="#FEFFFF" transform="matrix(1.00, 0.00, -0.00, -1.00, 396.7, 404.3)">a</text><text xml:space="preserve" font-family="Avenir-Light,Avenir" font-size="50.0" fill="#FEFFFF" transform="matrix(1.00, 0.00, -0.00, -1.00, 422.7, 404.3)">i</text><text xml:space="preserve" font-family="Avenir-Light,Avenir" font-size="50.0" fill="#FEFFFF" transform="matrix(1.00, 0.00, -0.00, -1.00, 434.7, 404.3)">n</text><text xml:space="preserve" font-family="Avenir-Light,Avenir" font-size="50.0" fill="#FEFFFF" transform="matrix(1.00, 0.00, -0.00, -1.00, 462.5, 404.3)"> </text><text xml:space="preserve" font-family="Avenir-Light,Avenir" font-size="50.0" fill="#FEFFFF" transform="matrix(1.00, 0.00, -0.00, -1.00, 475.5, 404.3)">q</text><text xml:space="preserve" font-family="Avenir-Light,Avenir" font-size="50.0" fill="#FEFFFF" transform="matrix(1.00, 0.00, -0.00, -1.00, 506.0, 404.3)">u</text><text xml:space="preserve" font-family="Avenir-Light,Avenir" font-size="50.0" fill="#FEFFFF" transform="matrix(1.00, 0.00, -0.00, -1.00, 533.8, 404.3)">e</text><text xml:space="preserve" font-family="Avenir-Light,Avenir" font-size="50.0" fill="#FEFFFF" transform="matrix(1.00, 0.00, -0.00, -1.00, 561.6, 404.3)">s</text><text xml:space="preserve" font-family="Avenir-Light,Avenir" font-size="50.0" fill="#FEFFFF" transform="matrix(1.00, 0.00, -0.00, -1.00, 582.9, 404.3)">t</text><text xml:space="preserve" font-family="Avenir-Light,Avenir" font-size="50.0" fill="#FEFFFF" transform="matrix(1.00, 0.00, -0.00, -1.00, 599.6, 404.3)">i</text><text xml:space="preserve" font-family="Avenir-Light,Avenir" font-size="50.0" fill="#FEFFFF" transform="matrix(1.00, 0.00, -0.00, -1.00, 611.6, 404.3)">o</text><text xml:space="preserve" font-family="Avenir-Light,Avenir" font-size="50.0" fill="#FEFFFF" transform="matrix(1.00, 0.00, -0.00, -1.00, 641.3, 404.3)">n</text><text xml:space="preserve" font-family="Avenir-Light,Avenir" font-size="50.0" fill="#FEFFFF" transform="matrix(1.00, 0.00, -0.00, -1.00, 669.1, 404.3)">s</text><text xml:space="preserve" font-family="Avenir-Light,Avenir" font-size="50.0" fill="#FEFFFF" transform="matrix(1.00, 0.00, -0.00, -1.00, 690.4, 404.3)"> </text><text xml:space="preserve" font-family="Avenir-Light,Avenir" font-size="50.0" fill="#FEFFFF" transform="matrix(1.00, 0.00, -0.00, -1.00, 703.4, 404.3)">I</text><text xml:space="preserve" font-family="Avenir-Light,Avenir" font-size="50.0" fill="#FEFFFF" transform="matrix(1.00, 0.00, -0.00, -1.00, 716.4, 404.3)"> </text><text xml:space="preserve" font-family="Avenir-Light,Avenir" font-size="50.0" fill="#FEFFFF" transform="matrix(1.00, 0.00, -0.00, -1.00, 729.4, 404.3)">a</text><text xml:space="preserve" font-family="Avenir-Light,Avenir" font-size="50.0" fill="#FEFFFF" transform="matrix(1.00, 0.00, -0.00, -1.00, 755.4, 404.3)">m</text><text xml:space="preserve" font-family="Avenir-Light,Avenir" font-size="50.0" fill="#FEFFFF" transform="matrix(1.00, 0.00, -0.00, -1.00, 798.0, 404.3)"> </text><text xml:space="preserve" font-family="Avenir-Light,Avenir" font-size="50.0" fill="#FEFFFF" transform="matrix(1.00, 0.00, -0.00, -1.00, 811.0, 404.3)">a</text><text xml:space="preserve" font-family="Avenir-Light,Avenir" font-size="50.0" fill="#FEFFFF" transform="matrix(1.00, 0.00, -0.00, -1.00, 836.9, 404.3)">s</text><text xml:space="preserve" font-family="Avenir-Light,Avenir" font-size="50.0" fill="#FEFFFF" transform="matrix(1.00, 0.00, -0.00, -1.00, 858.2, 404.3)">k</text><text xml:space="preserve" font-family="Avenir-Light,Avenir" font-size="50.0" fill="#FEFFFF" transform="matrix(1.00, 0.00, -0.00, -1.00, 882.2, 404.3)">i</text><text xml:space="preserve" font-family="Avenir-Light,Avenir" font-size="50.0" fill="#FEFFFF" transform="matrix(1.00, 0.00, -0.00, -1.00, 894.2, 404.3)">n</text><text xml:space="preserve" font-family="Avenir-Light,Avenir" font-size="50.0" fill="#FEFFFF" transform="matrix(1.00, 0.00, -0.00, -1.00, 922.0, 404.3)">g</text><text xml:space="preserve" font-family="Avenir-Light,Avenir" font-size="50.0" fill="#FEFFFF" transform="matrix(1.00, 0.00, -0.00, -1.00, 952.6, 404.3)"> </text><text xml:space="preserve" font-family="Avenir-Light,Avenir" font-size="50.0" fill="#FEFFFF" transform="matrix(1.00, 0.00, -0.00, -1.00, 965.6, 404.3)">m</text><text xml:space="preserve" font-family="Avenir-Light,Avenir" font-size="50.0" fill="#FEFFFF" transform="matrix(1.00, 0.00, -0.00, -1.00, 1008.2, 404.3)">y</text><text xml:space="preserve" font-family="Avenir-Light,Avenir" font-size="50.0" fill="#FEFFFF" transform="matrix(1.00, 0.00, -0.00, -1.00, 1031.3, 404.3)">s</text><text xml:space="preserve" font-family="Avenir-Light,Avenir" font-size="50.0" fill="#FEFFFF" transform="matrix(1.00, 0.00, -0.00, -1.00, 1052.6, 404.3)">e</text><text xml:space="preserve" font-family="Avenir-Light,Avenir" font-size="50.0" fill="#FEFFFF" transform="matrix(1.00, 0.00, -0.00, -1.00, 1080.4, 404.3)">l</text><text xml:space="preserve" font-family="Avenir-Light,Avenir" font-size="50.0" fill="#FEFFFF" transform="matrix(1.00, 0.00, -0.00, -1.00, 1092.5, 404.3)">f</text><text xml:space="preserve" font-family="Avenir-Light,Avenir" font-size="50.0" fill="#FEFFFF" transform="matrix(1.00, 0.00, -0.00, -1.00, 1107.3, 404.3)"> </text><text xml:space="preserve" font-family="Avenir-Light,Avenir" font-size="50.0" fill="#FEFFFF" transform="matrix(1.00, 0.00, -0.00, -1.00, 1120.3, 404.3)">a</text><text xml:space="preserve" font-family="Avenir-Light,Avenir" font-size="50.0" fill="#FEFFFF" transform="matrix(1.00, 0.00, -0.00, -1.00, 1146.2, 404.3)">f</text><text xml:space="preserve" font-family="Avenir-Light,Avenir" font-size="50.0" fill="#FEFFFF" transform="matrix(1.00, 0.00, -0.00, -1.00, 1161.0, 404.3)">t</text><text xml:space="preserve" font-family="Avenir-Light,Avenir" font-size="50.0" fill="#FEFFFF" transform="matrix(1.00, 0.00, -0.00, -1.00, 1177.7, 404.3)">e</text><text xml:space="preserve" font-family="Avenir-Light,Avenir" font-size="50.0" fill="#FEFFFF" transform="matrix(1.00, 0.00, -0.00, -1.00, 1205.5, 404.3)">r</text><text xml:space="preserve" font-family="Avenir-Light,Avenir" font-size="50.0" fill="#FEFFFF" transform="matrix(1.00, 0.00, -0.00, -1.00, 1222.1, 404.3)"> </text><text xml:space="preserve" font-family="Avenir-Light,Avenir" font-size="50.0" fill="#FEFFFF" transform="matrix(1.00, 0.00, -0.00, -1.00, 1235.1, 404.3)">s</text><text xml:space="preserve" font-family="Avenir-Light,Avenir" font-size="50.0" fill="#FEFFFF" transform="matrix(1.00, 0.00, -0.00, -1.00, 1256.4, 404.3)">t</text><text xml:space="preserve" font-family="Avenir-Light,Avenir" font-size="50.0" fill="#FEFFFF" transform="matrix(1.00, 0.00, -0.00, -1.00, 1273.1, 404.3)">u</text><text xml:space="preserve" font-family="Avenir-Light,Avenir" font-size="50.0" fill="#FEFFFF" transform="matrix(1.00, 0.00, -0.00, -1.00, 1300.9, 404.3)">d</text><text xml:space="preserve" font-family="Avenir-Light,Avenir" font-size="50.0" fill="#FEFFFF" transform="matrix(1.00, 0.00, -0.00, -1.00, 1331.4, 404.3)">y</text><text xml:space="preserve" font-family="Avenir-Light,Avenir" font-size="50.0" fill="#FEFFFF" transform="matrix(1.00, 0.00, -0.00, -1.00, 1354.6, 404.3)">i</text><text xml:space="preserve" font-family="Avenir-Light,Avenir" font-size="50.0" fill="#FEFFFF" transform="matrix(1.00, 0.00, -0.00, -1.00, 1366.6, 404.3)">n</text><text xml:space="preserve" font-family="Avenir-Light,Avenir" font-size="50.0" fill="#FEFFFF" transform="matrix(1.00, 0.00, -0.00, -1.00, 1394.4, 404.3)">g</text><text xml:space="preserve" font-family="Avenir-Light,Avenir" font-size="50.0" fill="#FEFFFF" transform="matrix(1.00, 0.00, -0.00, -1.00, 1424.9, 404.3)"> </text><text xml:space="preserve" font-family="Avenir-Light,Avenir" font-size="50.0" fill="#FEFFFF" transform="matrix(1.00, 0.00, -0.00, -1.00, 1437.9, 404.3)">t</text><text xml:space="preserve" font-family="Avenir-Light,Avenir" font-size="50.0" fill="#FEFFFF" transform="matrix(1.00, 0.00, -0.00, -1.00, 1454.6, 404.3)">h</text><text xml:space="preserve" font-family="Avenir-Light,Avenir" font-size="50.0" fill="#FEFFFF" transform="matrix(1.00, 0.00, -0.00, -1.00, 1482.4, 404.3)">i</text><text xml:space="preserve" font-family="Avenir-Light,Avenir" font-size="50.0" fill="#FEFFFF" transform="matrix(1.00, 0.00, -0.00, -1.00, 1494.4, 404.3)">s</text><text xml:space="preserve" font-family="Avenir-Light,Avenir" font-size="50.0" fill="#FEFFFF" transform="matrix(1.00, 0.00, -0.00, -1.00, 1515.7, 404.3)"> </text><text xml:space="preserve" font-family="Avenir-Light,Avenir" font-size="50.0" fill="#FEFFFF" transform="matrix(1.00, 0.00, -0.00, -1.00, 1528.7, 404.3)">a</text><text xml:space="preserve" font-family="Avenir-Light,Avenir" font-size="50.0" fill="#FEFFFF" transform="matrix(1.00, 0.00, -0.00, -1.00, 1554.7, 404.3)">r</text><text xml:space="preserve" font-family="Avenir-Light,Avenir" font-size="50.0" fill="#FEFFFF" transform="matrix(1.00, 0.00, -0.00, -1.00, 1571.3, 404.3)">t</text><text xml:space="preserve" font-family="Avenir-Light,Avenir" font-size="50.0" fill="#FEFFFF" transform="matrix(1.00, 0.00, -0.00, -1.00, 1588.0, 404.3)">i</text><text xml:space="preserve" font-family="Avenir-Light,Avenir" font-size="50.0" fill="#FEFFFF" transform="matrix(1.00, 0.00, -0.00, -1.00, 1600.0, 404.3)">c</text><text xml:space="preserve" font-family="Avenir-Light,Avenir" font-size="50.0" fill="#FEFFFF" transform="matrix(1.00, 0.00, -0.00, -1.00, 1624.1, 404.3)">l</text><text xml:space="preserve" font-family="Avenir-Light,Avenir" font-size="50.0" fill="#FEFFFF" transform="matrix(1.00, 0.00, -0.00, -1.00, 1636.1, 404.3)">e</text><text xml:space="preserve" font-family="Avenir-Light,Avenir" font-size="50.0" fill="#FEFFFF" transform="matrix(1.00, 0.00, -0.00, -1.00, 1663.9, 404.3)"> </text><text xml:space="preserve" font-family="Avenir-Light,Avenir" font-size="50.0" fill="#FEFFFF" transform="matrix(1.00, 0.00, -0.00, -1.00, 1676.9, 404.3)">i</text><text xml:space="preserve" font-family="Avenir-Light,Avenir" font-size="50.0" fill="#FEFFFF" transform="matrix(1.00, 0.00, -0.00, -1.00, 1688.9, 404.3)">s</text><text xml:space="preserve" font-family="Avenir-Light,Avenir" font-size="50.0" fill="#FEFFFF" transform="matrix(1.00, 0.00, -0.00, -1.00, 1710.2, 404.3)">:</text><text xml:space="preserve" font-family="Avenir-Light,Avenir" font-size="50.0" fill="#FEFFFF" transform="matrix(1.00, 0.00, -0.00, -1.00, 1723.2, 404.3)"> </text><text xml:space="preserve" font-family="Avenir-Light,Avenir" font-size="50.0" fill="#FEFFFF" transform="matrix(1.00, 0.00, -0.00, -1.00, 101.0, 336.3)">“</text><text xml:space="preserve" font-family="Avenir-Light,Avenir" font-size="50.0" fill="#FEFFFF" transform="matrix(1.00, 0.00, -0.00, -1.00, 127.0, 336.3)">W</text><text xml:space="preserve" font-family="Avenir-Light,Avenir" font-size="50.0" fill="#FEFFFF" transform="matrix(1.00, 0.00, -0.00, -1.00, 174.2, 336.3)">h</text><text xml:space="preserve" font-family="Avenir-Light,Avenir" font-size="50.0" fill="#FEFFFF" transform="matrix(1.00, 0.00, -0.00, -1.00, 202.0, 336.3)">a</text><text xml:space="preserve" font-family="Avenir-Light,Avenir" font-size="50.0" fill="#FEFFFF" transform="matrix(1.00, 0.00, -0.00, -1.00, 227.9, 336.3)">t</text><text xml:space="preserve" font-family="Avenir-Light,Avenir" font-size="50.0" fill="#FEFFFF" transform="matrix(1.00, 0.00, -0.00, -1.00, 244.6, 336.3)"> </text><text xml:space="preserve" font-family="Avenir-Light,Avenir" font-size="50.0" fill="#FEFFFF" transform="matrix(1.00, 0.00, -0.00, -1.00, 257.6, 336.3)">c</text><text xml:space="preserve" font-family="Avenir-Light,Avenir" font-size="50.0" fill="#FEFFFF" transform="matrix(1.00, 0.00, -0.00, -1.00, 281.6, 336.3)">a</text><text xml:space="preserve" font-family="Avenir-Light,Avenir" font-size="50.0" fill="#FEFFFF" transform="matrix(1.00, 0.00, -0.00, -1.00, 307.6, 336.3)">n</text><text xml:space="preserve" font-family="Avenir-Light,Avenir" font-size="50.0" fill="#FEFFFF" transform="matrix(1.00, 0.00, -0.00, -1.00, 335.4, 336.3)"> </text><text xml:space="preserve" font-family="Avenir-Light,Avenir" font-size="50.0" fill="#FEFFFF" transform="matrix(1.00, 0.00, -0.00, -1.00, 348.4, 336.3)">w</text><text xml:space="preserve" font-family="Avenir-Light,Avenir" font-size="50.0" fill="#FEFFFF" transform="matrix(1.00, 0.00, -0.00, -1.00, 383.6, 336.3)">e</text><text xml:space="preserve" font-family="Avenir-Light,Avenir" font-size="50.0" fill="#FEFFFF" transform="matrix(1.00, 0.00, -0.00, -1.00, 411.4, 336.3)"> </text><text xml:space="preserve" font-family="Avenir-Light,Avenir" font-size="50.0" fill="#FEFFFF" transform="matrix(1.00, 0.00, -0.00, -1.00, 424.4, 336.3)">d</text><text xml:space="preserve" font-family="Avenir-Light,Avenir" font-size="50.0" fill="#FEFFFF" transform="matrix(1.00, 0.00, -0.00, -1.00, 455.0, 336.3)">o</text><text xml:space="preserve" font-family="Avenir-Light,Avenir" font-size="50.0" fill="#FEFFFF" transform="matrix(1.00, 0.00, -0.00, -1.00, 484.7, 336.3)"> </text><text xml:space="preserve" font-family="Avenir-Light,Avenir" font-size="50.0" fill="#FEFFFF" transform="matrix(1.00, 0.00, -0.00, -1.00, 497.7, 336.3)">t</text><text xml:space="preserve" font-family="Avenir-Light,Avenir" font-size="50.0" fill="#FEFFFF" transform="matrix(1.00, 0.00, -0.00, -1.00, 514.3, 336.3)">o</text><text xml:space="preserve" font-family="Avenir-Light,Avenir" font-size="50.0" fill="#FEFFFF" transform="matrix(1.00, 0.00, -0.00, -1.00, 544.0, 336.3)"> </text><text xml:space="preserve" font-family="Avenir-Light,Avenir" font-size="50.0" fill="#FEFFFF" transform="matrix(1.00, 0.00, -0.00, -1.00, 557.0, 336.3)">s</text><text xml:space="preserve" font-family="Avenir-Light,Avenir" font-size="50.0" fill="#FEFFFF" transform="matrix(1.00, 0.00, -0.00, -1.00, 578.3, 336.3)">t</text><text xml:space="preserve" font-family="Avenir-Light,Avenir" font-size="50.0" fill="#FEFFFF" transform="matrix(1.00, 0.00, -0.00, -1.00, 595.0, 336.3)">o</text><text xml:space="preserve" font-family="Avenir-Light,Avenir" font-size="50.0" fill="#FEFFFF" transform="matrix(1.00, 0.00, -0.00, -1.00, 624.6, 336.3)">p</text><text xml:space="preserve" font-family="Avenir-Light,Avenir" font-size="50.0" fill="#FEFFFF" transform="matrix(1.00, 0.00, -0.00, -1.00, 655.2, 336.3)"> </text><text xml:space="preserve" font-family="Avenir-Light,Avenir" font-size="50.0" fill="#FEFFFF" transform="matrix(1.00, 0.00, -0.00, -1.00, 668.2, 336.3)">g</text><text xml:space="preserve" font-family="Avenir-Light,Avenir" font-size="50.0" fill="#FEFFFF" transform="matrix(1.00, 0.00, -0.00, -1.00, 698.7, 336.3)">l</text><text xml:space="preserve" font-family="Avenir-Light,Avenir" font-size="50.0" fill="#FEFFFF" transform="matrix(1.00, 0.00, -0.00, -1.00, 710.7, 336.3)">o</text><text xml:space="preserve" font-family="Avenir-Light,Avenir" font-size="50.0" fill="#FEFFFF" transform="matrix(1.00, 0.00, -0.00, -1.00, 740.4, 336.3)">b</text><text xml:space="preserve" font-family="Avenir-Light,Avenir" font-size="50.0" fill="#FEFFFF" transform="matrix(1.00, 0.00, -0.00, -1.00, 771.0, 336.3)">a</text><text xml:space="preserve" font-family="Avenir-Light,Avenir" font-size="50.0" fill="#FEFFFF" transform="matrix(1.00, 0.00, -0.00, -1.00, 796.9, 336.3)">l</text><text xml:space="preserve" font-family="Avenir-Light,Avenir" font-size="50.0" fill="#FEFFFF" transform="matrix(1.00, 0.00, -0.00, -1.00, 808.9, 336.3)"> </text><text xml:space="preserve" font-family="Avenir-Light,Avenir" font-size="50.0" fill="#FEFFFF" transform="matrix(1.00, 0.00, -0.00, -1.00, 821.9, 336.3)">w</text><text xml:space="preserve" font-family="Avenir-Light,Avenir" font-size="50.0" fill="#FEFFFF" transform="matrix(1.00, 0.00, -0.00, -1.00, 857.1, 336.3)">a</text><text xml:space="preserve" font-family="Avenir-Light,Avenir" font-size="50.0" fill="#FEFFFF" transform="matrix(1.00, 0.00, -0.00, -1.00, 883.1, 336.3)">r</text><text xml:space="preserve" font-family="Avenir-Light,Avenir" font-size="50.0" fill="#FEFFFF" transform="matrix(1.00, 0.00, -0.00, -1.00, 899.8, 336.3)">m</text><text xml:space="preserve" font-family="Avenir-Light,Avenir" font-size="50.0" fill="#FEFFFF" transform="matrix(1.00, 0.00, -0.00, -1.00, 942.4, 336.3)">i</text><text xml:space="preserve" font-family="Avenir-Light,Avenir" font-size="50.0" fill="#FEFFFF" transform="matrix(1.00, 0.00, -0.00, -1.00, 954.4, 336.3)">n</text><text xml:space="preserve" font-family="Avenir-Light,Avenir" font-size="50.0" fill="#FEFFFF" transform="matrix(1.00, 0.00, -0.00, -1.00, 982.1, 336.3)">g</text><text xml:space="preserve" font-family="Avenir-Light,Avenir" font-size="50.0" fill="#FEFFFF" transform="matrix(1.00, 0.00, -0.00, -1.00, 1012.7, 336.3)"> </text><text xml:space="preserve" font-family="Avenir-Light,Avenir" font-size="50.0" fill="#FEFFFF" transform="matrix(1.00, 0.00, -0.00, -1.00, 1025.7, 336.3)">a</text><text xml:space="preserve" font-family="Avenir-Light,Avenir" font-size="50.0" fill="#FEFFFF" transform="matrix(1.00, 0.00, -0.00, -1.00, 1051.7, 336.3)">n</text><text xml:space="preserve" font-family="Avenir-Light,Avenir" font-size="50.0" fill="#FEFFFF" transform="matrix(1.00, 0.00, -0.00, -1.00, 1079.4, 336.3)">d</text><text xml:space="preserve" font-family="Avenir-Light,Avenir" font-size="50.0" fill="#FEFFFF" transform="matrix(1.00, 0.00, -0.00, -1.00, 1110.0, 336.3)"> </text><text xml:space="preserve" font-family="Avenir-Light,Avenir" font-size="50.0" fill="#FEFFFF" transform="matrix(1.00, 0.00, -0.00, -1.00, 1123.0, 336.3)">e</text><text xml:space="preserve" font-family="Avenir-Light,Avenir" font-size="50.0" fill="#FEFFFF" transform="matrix(1.00, 0.00, -0.00, -1.00, 1150.8, 336.3)">v</text><text xml:space="preserve" font-family="Avenir-Light,Avenir" font-size="50.0" fill="#FEFFFF" transform="matrix(1.00, 0.00, -0.00, -1.00, 1174.0, 336.3)">e</text><text xml:space="preserve" font-family="Avenir-Light,Avenir" font-size="50.0" fill="#FEFFFF" transform="matrix(1.00, 0.00, -0.00, -1.00, 1201.8, 336.3)">n</text><text xml:space="preserve" font-family="Avenir-Light,Avenir" font-size="50.0" fill="#FEFFFF" transform="matrix(1.00, 0.00, -0.00, -1.00, 1229.5, 336.3)">t</text><text xml:space="preserve" font-family="Avenir-Light,Avenir" font-size="50.0" fill="#FEFFFF" transform="matrix(1.00, 0.00, -0.00, -1.00, 1246.2, 336.3)">s</text><text xml:space="preserve" font-family="Avenir-Light,Avenir" font-size="50.0" fill="#FEFFFF" transform="matrix(1.00, 0.00, -0.00, -1.00, 1267.5, 336.3)"> </text><text xml:space="preserve" font-family="Avenir-Light,Avenir" font-size="50.0" fill="#FEFFFF" transform="matrix(1.00, 0.00, -0.00, -1.00, 1280.5, 336.3)">l</text><text xml:space="preserve" font-family="Avenir-Light,Avenir" font-size="50.0" fill="#FEFFFF" transform="matrix(1.00, 0.00, -0.00, -1.00, 1292.5, 336.3)">i</text><text xml:space="preserve" font-family="Avenir-Light,Avenir" font-size="50.0" fill="#FEFFFF" transform="matrix(1.00, 0.00, -0.00, -1.00, 1304.5, 336.3)">k</text><text xml:space="preserve" font-family="Avenir-Light,Avenir" font-size="50.0" fill="#FEFFFF" transform="matrix(1.00, 0.00, -0.00, -1.00, 1328.6, 336.3)">e</text><text xml:space="preserve" font-family="Avenir-Light,Avenir" font-size="50.0" fill="#FEFFFF" transform="matrix(1.00, 0.00, -0.00, -1.00, 1356.4, 336.3)"> </text><text xml:space="preserve" font-family="Avenir-Light,Avenir" font-size="50.0" fill="#FEFFFF" transform="matrix(1.00, 0.00, -0.00, -1.00, 1369.4, 336.3)">t</text><text xml:space="preserve" font-family="Avenir-Light,Avenir" font-size="50.0" fill="#FEFFFF" transform="matrix(1.00, 0.00, -0.00, -1.00, 1386.1, 336.3)">h</text><text xml:space="preserve" font-family="Avenir-Light,Avenir" font-size="50.0" fill="#FEFFFF" transform="matrix(1.00, 0.00, -0.00, -1.00, 1413.9, 336.3)">i</text><text xml:space="preserve" font-family="Avenir-Light,Avenir" font-size="50.0" fill="#FEFFFF" transform="matrix(1.00, 0.00, -0.00, -1.00, 1425.9, 336.3)">s</text><text xml:space="preserve" font-family="Avenir-Light,Avenir" font-size="50.0" fill="#FEFFFF" transform="matrix(1.00, 0.00, -0.00, -1.00, 1447.2, 336.3)">”</text><text xml:space="preserve" font-family="Avenir-Light,Avenir" font-size="50.0" fill="#FEFFFF" transform="matrix(1.00, 0.00, -0.00, -1.00, 1473.2, 336.3)">.</text></g></svg>