<?xml version="1.0" encoding="UTF-8" standalone="no"?><svg xmlns="http://www.w3.org/2000/svg" xmlns:xlink="http://www.w3.org/1999/xlink" clip-rule="evenodd" stroke-miterlimit="10" viewBox="0 0 1024 768"><desc>SVG generated by Keynote</desc><defs></defs><g transform="matrix(1.00, 0.00, -0.00, -1.00, 0.0, 768.0)"><g><clipPath id="clip0x600000eb2060"><path d="M 0.0 768.0 L 1024.0 768.0 L 1024.0 0.0 L 0.0 0.0 Z M 0.0 768.0 "></path></clipPath><g clip-path="url(#clip0x600000eb2060)"><image xlink:href="3CCE1D47D88EF9127B4B1C32D34F3AB7.jpeg" width="2500.00" height="1667.00" transform="matrix(0.46, 0.00, -0.00, -0.46, -63.9, 768.0)"></image></g></g><text xml:space="preserve" font-family="Avenir-Light,Avenir" font-size="43.4" fill="#FEFFFF" transform="matrix(1.00, 0.00, -0.00, -1.00, 56.0, 382.9)">G</text><text xml:space="preserve" font-family="Avenir-Light,Avenir" font-size="43.4" fill="#FEFFFF" transform="matrix(1.00, 0.00, -0.00, -1.00, 96.7, 382.9)">R</text><text xml:space="preserve" font-family="Avenir-Light,Avenir" font-size="43.4" fill="#FEFFFF" transform="matrix(1.00, 0.00, -0.00, -1.00, 129.4, 382.9)">E</text><text xml:space="preserve" font-family="Avenir-Light,Avenir" font-size="43.4" fill="#FEFFFF" transform="matrix(1.00, 0.00, -0.00, -1.00, 162.1, 382.9)">A</text><text xml:space="preserve" font-family="Avenir-Light,Avenir" font-size="43.4" fill="#FEFFFF" transform="matrix(1.00, 0.00, -0.00, -1.00, 195.8, 382.9)">T</text><text xml:space="preserve" font-family="Avenir-Light,Avenir" font-size="43.4" fill="#FEFFFF" transform="matrix(1.00, 0.00, -0.00, -1.00, 227.6, 382.9)"> </text><text xml:space="preserve" font-family="Avenir-Light,Avenir" font-size="43.4" fill="#FEFFFF" transform="matrix(1.00, 0.00, -0.00, -1.00, 245.9, 382.9)">S</text><text xml:space="preserve" font-family="Avenir-Light,Avenir" font-size="43.4" fill="#FEFFFF" transform="matrix(1.00, 0.00, -0.00, -1.00, 276.9, 382.9)">I</text><text xml:space="preserve" font-family="Avenir-Light,Avenir" font-size="43.4" fill="#FEFFFF" transform="matrix(1.00, 0.00, -0.00, -1.00, 295.2, 382.9)">B</text><text xml:space="preserve" font-family="Avenir-Light,Avenir" font-size="43.4" fill="#FEFFFF" transform="matrix(1.00, 0.00, -0.00, -1.00, 329.5, 382.9)">E</text><text xml:space="preserve" font-family="Avenir-Light,Avenir" font-size="43.4" fill="#FEFFFF" transform="matrix(1.00, 0.00, -0.00, -1.00, 362.1, 382.9)">R</text><text xml:space="preserve" font-family="Avenir-Light,Avenir" font-size="43.4" fill="#FEFFFF" transform="matrix(1.00, 0.00, -0.00, -1.00, 394.8, 382.9)">I</text><text xml:space="preserve" font-family="Avenir-Light,Avenir" font-size="43.4" fill="#FEFFFF" transform="matrix(1.00, 0.00, -0.00, -1.00, 413.1, 382.9)">A</text><text xml:space="preserve" font-family="Avenir-Light,Avenir" font-size="43.4" fill="#FEFFFF" transform="matrix(1.00, 0.00, -0.00, -1.00, 449.7, 382.9)">N</text><text xml:space="preserve" font-family="Avenir-Light,Avenir" font-size="43.4" fill="#FEFFFF" transform="matrix(1.00, 0.00, -0.00, -1.00, 490.4, 382.9)"> </text><text xml:space="preserve" font-family="Avenir-Light,Avenir" font-size="43.4" fill="#FEFFFF" transform="matrix(1.00, 0.00, -0.00, -1.00, 508.7, 382.9)">C</text><text xml:space="preserve" font-family="Avenir-Light,Avenir" font-size="43.4" fill="#FEFFFF" transform="matrix(1.00, 0.00, -0.00, -1.00, 546.2, 382.9)">R</text><text xml:space="preserve" font-family="Avenir-Light,Avenir" font-size="43.4" fill="#FEFFFF" transform="matrix(1.00, 0.00, -0.00, -1.00, 578.8, 382.9)">A</text><text xml:space="preserve" font-family="Avenir-Light,Avenir" font-size="43.4" fill="#FEFFFF" transform="matrix(1.00, 0.00, -0.00, -1.00, 612.6, 382.9)">T</text><text xml:space="preserve" font-family="Avenir-Light,Avenir" font-size="43.4" fill="#FEFFFF" transform="matrix(1.00, 0.00, -0.00, -1.00, 644.4, 382.9)">E</text><text xml:space="preserve" font-family="Avenir-Light,Avenir" font-size="43.4" fill="#FEFFFF" transform="matrix(1.00, 0.00, -0.00, -1.00, 677.1, 382.9)">R</text><text xml:space="preserve" font-family="Avenir-Light,Avenir" font-size="43.4" fill="#FEFFFF" transform="matrix(1.00, 0.00, -0.00, -1.00, 709.8, 382.9)"> </text><text xml:space="preserve" font-family="Avenir-Light,Avenir" font-size="43.4" fill="#FEFFFF" transform="matrix(1.00, 0.00, -0.00, -1.00, 728.0, 382.9)">M</text><text xml:space="preserve" font-family="Avenir-Light,Avenir" font-size="43.4" fill="#FEFFFF" transform="matrix(1.00, 0.00, -0.00, -1.00, 773.5, 382.9)">Y</text><text xml:space="preserve" font-family="Avenir-Light,Avenir" font-size="43.4" fill="#FEFFFF" transform="matrix(1.00, 0.00, -0.00, -1.00, 805.4, 382.9)">S</text><text xml:space="preserve" font-family="Avenir-Light,Avenir" font-size="43.4" fill="#FEFFFF" transform="matrix(1.00, 0.00, -0.00, -1.00, 836.5, 382.9)">T</text><text xml:space="preserve" font-family="Avenir-Light,Avenir" font-size="43.4" fill="#FEFFFF" transform="matrix(1.00, 0.00, -0.00, -1.00, 868.3, 382.9)">E</text><text xml:space="preserve" font-family="Avenir-Light,Avenir" font-size="43.4" fill="#FEFFFF" transform="matrix(1.00, 0.00, -0.00, -1.00, 901.0, 382.9)">R</text><text xml:space="preserve" font-family="Avenir-Light,Avenir" font-size="43.4" fill="#FEFFFF" transform="matrix(1.00, 0.00, -0.00, -1.00, 933.1, 382.9)">Y</text><text xml:space="preserve" font-family="Avenir-Light,Avenir" font-size="43.4" fill="#FEFFFF" transform="matrix(1.00, 0.00, -0.00, -1.00, 965.0, 382.9)"> </text><text xml:space="preserve" font-family="Avenir-Light,Avenir" font-size="43.4" fill="#FEFFFF" transform="matrix(1.00, 0.00, -0.00, -1.00, 56.0, 323.9)">T</text><text xml:space="preserve" font-family="Avenir-Light,Avenir" font-size="43.4" fill="#FEFFFF" transform="matrix(1.00, 0.00, -0.00, -1.00, 87.9, 323.9)">E</text><text xml:space="preserve" font-family="Avenir-Light,Avenir" font-size="43.4" fill="#FEFFFF" transform="matrix(1.00, 0.00, -0.00, -1.00, 120.5, 323.9)">R</text><text xml:space="preserve" font-family="Avenir-Light,Avenir" font-size="43.4" fill="#FEFFFF" transform="matrix(1.00, 0.00, -0.00, -1.00, 153.2, 323.9)">R</text><text xml:space="preserve" font-family="Avenir-Light,Avenir" font-size="43.4" fill="#FEFFFF" transform="matrix(1.00, 0.00, -0.00, -1.00, 185.9, 323.9)">E</text><text xml:space="preserve" font-family="Avenir-Light,Avenir" font-size="43.4" fill="#FEFFFF" transform="matrix(1.00, 0.00, -0.00, -1.00, 218.6, 323.9)">N</text><text xml:space="preserve" font-family="Avenir-Light,Avenir" font-size="43.4" fill="#FEFFFF" transform="matrix(1.00, 0.00, -0.00, -1.00, 259.3, 323.9)">C</text><text xml:space="preserve" font-family="Avenir-Light,Avenir" font-size="43.4" fill="#FEFFFF" transform="matrix(1.00, 0.00, -0.00, -1.00, 296.8, 323.9)">E</text><text xml:space="preserve" font-family="Avenir-Light,Avenir" font-size="43.4" fill="#FEFFFF" transform="matrix(1.00, 0.00, -0.00, -1.00, 329.5, 323.9)"> </text><text xml:space="preserve" font-family="Avenir-Light,Avenir" font-size="43.4" fill="#FEFFFF" transform="matrix(1.00, 0.00, -0.00, -1.00, 347.7, 323.9)">M</text><text xml:space="preserve" font-family="Avenir-Light,Avenir" font-size="43.4" fill="#FEFFFF" transform="matrix(1.00, 0.00, -0.00, -1.00, 393.2, 323.9)">C</text><text xml:space="preserve" font-family="Avenir-Light,Avenir" font-size="43.4" fill="#FEFFFF" transform="matrix(1.00, 0.00, -0.00, -1.00, 430.7, 323.9)">C</text><text xml:space="preserve" font-family="Avenir-Light,Avenir" font-size="43.4" fill="#FEFFFF" transform="matrix(1.00, 0.00, -0.00, -1.00, 468.2, 323.9)">O</text><text xml:space="preserve" font-family="Avenir-Light,Avenir" font-size="43.4" fill="#FEFFFF" transform="matrix(1.00, 0.00, -0.00, -1.00, 511.4, 323.9)">Y</text><text xml:space="preserve" font-family="Avenir-Book,Avenir" font-size="24.0" fill="#55D6FF" transform="matrix(1.00, 0.00, -0.00, -1.00, 56.0, 441.8)">A</text><text xml:space="preserve" font-family="Avenir-Book,Avenir" font-size="24.0" fill="#55D6FF" transform="matrix(1.00, 0.00, -0.00, -1.00, 76.3, 441.8)">L</text><text xml:space="preserve" font-family="Avenir-Book,Avenir" font-size="24.0" fill="#55D6FF" transform="matrix(1.00, 0.00, -0.00, -1.00, 92.1, 441.8)">E</text><text xml:space="preserve" font-family="Avenir-Book,Avenir" font-size="24.0" fill="#55D6FF" transform="matrix(1.00, 0.00, -0.00, -1.00, 110.2, 441.8)">X</text><text xml:space="preserve" font-family="Avenir-Book,Avenir" font-size="24.0" fill="#55D6FF" transform="matrix(1.00, 0.00, -0.00, -1.00, 129.2, 441.8)"> </text><text xml:space="preserve" font-family="Avenir-Book,Avenir" font-size="24.0" fill="#55D6FF" transform="matrix(1.00, 0.00, -0.00, -1.00, 139.7, 441.8)">B</text><text xml:space="preserve" font-family="Avenir-Book,Avenir" font-size="24.0" fill="#55D6FF" transform="matrix(1.00, 0.00, -0.00, -1.00, 158.6, 441.8)">I</text><text xml:space="preserve" font-family="Avenir-Book,Avenir" font-size="24.0" fill="#55D6FF" transform="matrix(1.00, 0.00, -0.00, -1.00, 168.8, 441.8)">E</text><text xml:space="preserve" font-family="Avenir-Book,Avenir" font-size="24.0" fill="#55D6FF" transform="matrix(1.00, 0.00, -0.00, -1.00, 186.9, 441.8)">R</text><text xml:space="preserve" font-family="Avenir-Book,Avenir" font-size="24.0" fill="#55D6FF" transform="matrix(1.00, 0.00, -0.00, -1.00, 205.4, 441.8)">W</text><text xml:space="preserve" font-family="Avenir-Book,Avenir" font-size="24.0" fill="#55D6FF" transform="matrix(1.00, 0.00, -0.00, -1.00, 231.4, 441.8)">A</text><text xml:space="preserve" font-family="Avenir-Book,Avenir" font-size="24.0" fill="#55D6FF" transform="matrix(1.00, 0.00, -0.00, -1.00, 251.7, 441.8)">G</text><text xml:space="preserve" font-family="Avenir-Book,Avenir" font-size="24.0" fill="#55D6FF" transform="matrix(1.00, 0.00, -0.00, -1.00, 274.2, 441.8)">E</text><text xml:space="preserve" font-family="Avenir-Book,Avenir" font-size="24.0" fill="#55D6FF" transform="matrix(1.00, 0.00, -0.00, -1.00, 292.3, 441.8)">N</text><text xml:space="preserve" font-family="Avenir-Book,Avenir" font-size="24.0" fill="#55D6FF" transform="matrix(1.00, 0.00, -0.00, -1.00, 314.8, 441.8)"> </text><text xml:space="preserve" font-family="Avenir-Book,Avenir" font-size="24.0" fill="#55D6FF" transform="matrix(1.00, 0.00, -0.00, -1.00, 325.3, 441.8)">1</text><text xml:space="preserve" font-family="Avenir-Book,Avenir" font-size="24.0" fill="#55D6FF" transform="matrix(1.00, 0.00, -0.00, -1.00, 342.5, 441.8)">2</text><text xml:space="preserve" font-family="Avenir-Book,Avenir" font-size="24.0" fill="#55D6FF" transform="matrix(1.00, 0.00, -0.00, -1.00, 359.7, 441.8)">/</text><text xml:space="preserve" font-family="Avenir-Book,Avenir" font-size="24.0" fill="#55D6FF" transform="matrix(1.00, 0.00, -0.00, -1.00, 372.4, 441.8)">1</text><text xml:space="preserve" font-family="Avenir-Book,Avenir" font-size="24.0" fill="#55D6FF" transform="matrix(1.00, 0.00, -0.00, -1.00, 389.6, 441.8)">5</text><text xml:space="preserve" font-family="Avenir-Book,Avenir" font-size="24.0" fill="#55D6FF" transform="matrix(1.00, 0.00, -0.00, -1.00, 406.8, 441.8)">/</text><text xml:space="preserve" font-family="Avenir-Book,Avenir" font-size="24.0" fill="#55D6FF" transform="matrix(1.00, 0.00, -0.00, -1.00, 419.5, 441.8)">1</text><text xml:space="preserve" font-family="Avenir-Book,Avenir" font-size="24.0" fill="#55D6FF" transform="matrix(1.00, 0.00, -0.00, -1.00, 436.7, 441.8)">4</text></g></svg>