<?xml version="1.0" encoding="UTF-8" standalone="no"?><svg xmlns="http://www.w3.org/2000/svg" xmlns:xlink="http://www.w3.org/1999/xlink" clip-rule="evenodd" stroke-miterlimit="10" viewBox="0 0 1920 1080"><desc>SVG generated by Keynote</desc><defs></defs><g transform="matrix(1.00, 0.00, -0.00, -1.00, 0.0, 1080.0)"><path d="M 0.0 1080.0 L 1920.0 1080.0 L 1920.0 0.0 L 0.0 0.0 Z M 0.0 1080.0 " fill="#000000"></path><text xml:space="preserve" font-family="Avenir-Light,Avenir" font-size="62.0" fill="#FEFFFF" transform="matrix(1.00, 0.00, -0.00, -1.00, 101.0, 945.7)">R</text><text xml:space="preserve" font-family="Avenir-Light,Avenir" font-size="62.0" fill="#FEFFFF" transform="matrix(1.00, 0.00, -0.00, -1.00, 147.7, 945.7)">E</text><text xml:space="preserve" font-family="Avenir-Light,Avenir" font-size="62.0" fill="#FEFFFF" transform="matrix(1.00, 0.00, -0.00, -1.00, 194.4, 945.7)">F</text><text xml:space="preserve" font-family="Avenir-Light,Avenir" font-size="62.0" fill="#FEFFFF" transform="matrix(1.00, 0.00, -0.00, -1.00, 238.8, 945.7)">E</text><text xml:space="preserve" font-family="Avenir-Light,Avenir" font-size="62.0" fill="#FEFFFF" transform="matrix(1.00, 0.00, -0.00, -1.00, 285.4, 945.7)">R</text><text xml:space="preserve" font-family="Avenir-Light,Avenir" font-size="62.0" fill="#FEFFFF" transform="matrix(1.00, 0.00, -0.00, -1.00, 332.1, 945.7)">E</text><text xml:space="preserve" font-family="Avenir-Light,Avenir" font-size="62.0" fill="#FEFFFF" transform="matrix(1.00, 0.00, -0.00, -1.00, 378.8, 945.7)">N</text><text xml:space="preserve" font-family="Avenir-Light,Avenir" font-size="62.0" fill="#FEFFFF" transform="matrix(1.00, 0.00, -0.00, -1.00, 437.0, 945.7)">C</text><text xml:space="preserve" font-family="Avenir-Light,Avenir" font-size="62.0" fill="#FEFFFF" transform="matrix(1.00, 0.00, -0.00, -1.00, 490.5, 945.7)">E</text><text xml:space="preserve" font-family="Avenir-Light,Avenir" font-size="62.0" fill="#FEFFFF" transform="matrix(1.00, 0.00, -0.00, -1.00, 537.2, 945.7)">S</text><text xml:space="preserve" font-family="Avenir-Light,Avenir" font-size="50.0" fill="#FEFFFF" transform="matrix(1.00, 0.00, -0.00, -1.00, 101.0, 802.3)">1</text><text xml:space="preserve" font-family="Avenir-Light,Avenir" font-size="50.0" fill="#FEFFFF" transform="matrix(1.00, 0.00, -0.00, -1.00, 127.0, 802.3)">.</text><text xml:space="preserve" font-family="Avenir-Light,Avenir" font-size="50.0" fill="#FEFFFF" transform="matrix(1.00, 0.00, -0.00, -1.00, 171.0, 802.3)">h</text><text xml:space="preserve" font-family="Avenir-Light,Avenir" font-size="50.0" fill="#FEFFFF" transform="matrix(1.00, 0.00, -0.00, -1.00, 198.8, 802.3)">t</text><text xml:space="preserve" font-family="Avenir-Light,Avenir" font-size="50.0" fill="#FEFFFF" transform="matrix(1.00, 0.00, -0.00, -1.00, 215.5, 802.3)">t</text><text xml:space="preserve" font-family="Avenir-Light,Avenir" font-size="50.0" fill="#FEFFFF" transform="matrix(1.00, 0.00, -0.00, -1.00, 232.2, 802.3)">p</text><text xml:space="preserve" font-family="Avenir-Light,Avenir" font-size="50.0" fill="#FEFFFF" transform="matrix(1.00, 0.00, -0.00, -1.00, 262.7, 802.3)">:</text><text xml:space="preserve" font-family="Avenir-Light,Avenir" font-size="50.0" fill="#FEFFFF" transform="matrix(1.00, 0.00, -0.00, -1.00, 275.7, 802.3)">/</text><text xml:space="preserve" font-family="Avenir-Light,Avenir" font-size="50.0" fill="#FEFFFF" transform="matrix(1.00, 0.00, -0.00, -1.00, 294.2, 802.3)">/</text><text xml:space="preserve" font-family="Avenir-Light,Avenir" font-size="50.0" fill="#FEFFFF" transform="matrix(1.00, 0.00, -0.00, -1.00, 312.7, 802.3)">y</text><text xml:space="preserve" font-family="Avenir-Light,Avenir" font-size="50.0" fill="#FEFFFF" transform="matrix(1.00, 0.00, -0.00, -1.00, 335.9, 802.3)">o</text><text xml:space="preserve" font-family="Avenir-Light,Avenir" font-size="50.0" fill="#FEFFFF" transform="matrix(1.00, 0.00, -0.00, -1.00, 365.5, 802.3)">u</text><text xml:space="preserve" font-family="Avenir-Light,Avenir" font-size="50.0" fill="#FEFFFF" transform="matrix(1.00, 0.00, -0.00, -1.00, 393.4, 802.3)">t</text><text xml:space="preserve" font-family="Avenir-Light,Avenir" font-size="50.0" fill="#FEFFFF" transform="matrix(1.00, 0.00, -0.00, -1.00, 410.0, 802.3)">u</text><text xml:space="preserve" font-family="Avenir-Light,Avenir" font-size="50.0" fill="#FEFFFF" transform="matrix(1.00, 0.00, -0.00, -1.00, 437.8, 802.3)">.</text><text xml:space="preserve" font-family="Avenir-Light,Avenir" font-size="50.0" fill="#FEFFFF" transform="matrix(1.00, 0.00, -0.00, -1.00, 450.8, 802.3)">b</text><text xml:space="preserve" font-family="Avenir-Light,Avenir" font-size="50.0" fill="#FEFFFF" transform="matrix(1.00, 0.00, -0.00, -1.00, 481.4, 802.3)">e</text><text xml:space="preserve" font-family="Avenir-Light,Avenir" font-size="50.0" fill="#FEFFFF" transform="matrix(1.00, 0.00, -0.00, -1.00, 509.2, 802.3)">/</text><text xml:space="preserve" font-family="Avenir-Light,Avenir" font-size="50.0" fill="#FEFFFF" transform="matrix(1.00, 0.00, -0.00, -1.00, 527.7, 802.3)">2</text><text xml:space="preserve" font-family="Avenir-Light,Avenir" font-size="50.0" fill="#FEFFFF" transform="matrix(1.00, 0.00, -0.00, -1.00, 553.7, 802.3)">k</text><text xml:space="preserve" font-family="Avenir-Light,Avenir" font-size="50.0" fill="#FEFFFF" transform="matrix(1.00, 0.00, -0.00, -1.00, 577.7, 802.3)">M</text><text xml:space="preserve" font-family="Avenir-Light,Avenir" font-size="50.0" fill="#FEFFFF" transform="matrix(1.00, 0.00, -0.00, -1.00, 622.2, 802.3)">s</text><text xml:space="preserve" font-family="Avenir-Light,Avenir" font-size="50.0" fill="#FEFFFF" transform="matrix(1.00, 0.00, -0.00, -1.00, 643.5, 802.3)">0</text><text xml:space="preserve" font-family="Avenir-Light,Avenir" font-size="50.0" fill="#FEFFFF" transform="matrix(1.00, 0.00, -0.00, -1.00, 669.5, 802.3)">5</text><text xml:space="preserve" font-family="Avenir-Light,Avenir" font-size="50.0" fill="#FEFFFF" transform="matrix(1.00, 0.00, -0.00, -1.00, 695.5, 802.3)">V</text><text xml:space="preserve" font-family="Avenir-Light,Avenir" font-size="50.0" fill="#FEFFFF" transform="matrix(1.00, 0.00, -0.00, -1.00, 722.4, 802.3)">a</text><text xml:space="preserve" font-family="Avenir-Light,Avenir" font-size="50.0" fill="#FEFFFF" transform="matrix(1.00, 0.00, -0.00, -1.00, 748.3, 802.3)">O</text><text xml:space="preserve" font-family="Avenir-Light,Avenir" font-size="50.0" fill="#FEFFFF" transform="matrix(1.00, 0.00, -0.00, -1.00, 790.0, 802.3)">f</text><text xml:space="preserve" font-family="Avenir-Light,Avenir" font-size="50.0" fill="#FEFFFF" transform="matrix(1.00, 0.00, -0.00, -1.00, 804.8, 802.3)">E</text><text xml:space="preserve" font-family="Avenir-Light,Avenir" font-size="50.0" fill="#FEFFFF" transform="matrix(1.00, 0.00, -0.00, -1.00, 834.5, 802.3)"> </text><g><clipPath id="clip0x6000018a1800"><path d="M 170.0 796.3 L 834.5 796.3 L 834.5 800.8 L 170.0 800.8 Z M 170.0 796.3 "></path></clipPath><g clip-path="url(#clip0x6000018a1800)"><path d="M 74.0 57.5 L 737.5 57.5 " fill="none" stroke="#FEFFFF" stroke-width="2.50" transform="matrix(1.00, 0.00, 0.00, -1.00, 97.0, 856.0)"></path></g></g><text xml:space="preserve" font-family="Avenir-Light,Avenir" font-size="50.0" fill="#FEFFFF" transform="matrix(1.00, 0.00, -0.00, -1.00, 101.0, 675.3)">2</text><text xml:space="preserve" font-family="Avenir-Light,Avenir" font-size="50.0" fill="#FEFFFF" transform="matrix(1.00, 0.00, -0.00, -1.00, 127.0, 675.3)">.</text><text xml:space="preserve" font-family="Avenir-Light,Avenir" font-size="50.0" fill="#FEFFFF" transform="matrix(1.00, 0.00, -0.00, -1.00, 171.0, 675.3)">h</text><text xml:space="preserve" font-family="Avenir-Light,Avenir" font-size="50.0" fill="#FEFFFF" transform="matrix(1.00, 0.00, -0.00, -1.00, 198.8, 675.3)">t</text><text xml:space="preserve" font-family="Avenir-Light,Avenir" font-size="50.0" fill="#FEFFFF" transform="matrix(1.00, 0.00, -0.00, -1.00, 215.5, 675.3)">t</text><text xml:space="preserve" font-family="Avenir-Light,Avenir" font-size="50.0" fill="#FEFFFF" transform="matrix(1.00, 0.00, -0.00, -1.00, 232.2, 675.3)">p</text><text xml:space="preserve" font-family="Avenir-Light,Avenir" font-size="50.0" fill="#FEFFFF" transform="matrix(1.00, 0.00, -0.00, -1.00, 262.7, 675.3)">:</text><text xml:space="preserve" font-family="Avenir-Light,Avenir" font-size="50.0" fill="#FEFFFF" transform="matrix(1.00, 0.00, -0.00, -1.00, 275.7, 675.3)">/</text><text xml:space="preserve" font-family="Avenir-Light,Avenir" font-size="50.0" fill="#FEFFFF" transform="matrix(1.00, 0.00, -0.00, -1.00, 294.2, 675.3)">/</text><text xml:space="preserve" font-family="Avenir-Light,Avenir" font-size="50.0" fill="#FEFFFF" transform="matrix(1.00, 0.00, -0.00, -1.00, 312.7, 675.3)">w</text><text xml:space="preserve" font-family="Avenir-Light,Avenir" font-size="50.0" fill="#FEFFFF" transform="matrix(1.00, 0.00, -0.00, -1.00, 347.9, 675.3)">w</text><text xml:space="preserve" font-family="Avenir-Light,Avenir" font-size="50.0" fill="#FEFFFF" transform="matrix(1.00, 0.00, -0.00, -1.00, 383.1, 675.3)">w</text><text xml:space="preserve" font-family="Avenir-Light,Avenir" font-size="50.0" fill="#FEFFFF" transform="matrix(1.00, 0.00, -0.00, -1.00, 415.5, 675.3)">.</text><text xml:space="preserve" font-family="Avenir-Light,Avenir" font-size="50.0" fill="#FEFFFF" transform="matrix(1.00, 0.00, -0.00, -1.00, 428.5, 675.3)">h</text><text xml:space="preserve" font-family="Avenir-Light,Avenir" font-size="50.0" fill="#FEFFFF" transform="matrix(1.00, 0.00, -0.00, -1.00, 456.3, 675.3)">u</text><text xml:space="preserve" font-family="Avenir-Light,Avenir" font-size="50.0" fill="#FEFFFF" transform="matrix(1.00, 0.00, -0.00, -1.00, 484.1, 675.3)">f</text><text xml:space="preserve" font-family="Avenir-Light,Avenir" font-size="50.0" fill="#FEFFFF" transform="matrix(1.00, 0.00, -0.00, -1.00, 498.1, 675.3)">f</text><text xml:space="preserve" font-family="Avenir-Light,Avenir" font-size="50.0" fill="#FEFFFF" transform="matrix(1.00, 0.00, -0.00, -1.00, 512.9, 675.3)">i</text><text xml:space="preserve" font-family="Avenir-Light,Avenir" font-size="50.0" fill="#FEFFFF" transform="matrix(1.00, 0.00, -0.00, -1.00, 524.9, 675.3)">n</text><text xml:space="preserve" font-family="Avenir-Light,Avenir" font-size="50.0" fill="#FEFFFF" transform="matrix(1.00, 0.00, -0.00, -1.00, 552.7, 675.3)">g</text><text xml:space="preserve" font-family="Avenir-Light,Avenir" font-size="50.0" fill="#FEFFFF" transform="matrix(1.00, 0.00, -0.00, -1.00, 583.2, 675.3)">t</text><text xml:space="preserve" font-family="Avenir-Light,Avenir" font-size="50.0" fill="#FEFFFF" transform="matrix(1.00, 0.00, -0.00, -1.00, 599.9, 675.3)">o</text><text xml:space="preserve" font-family="Avenir-Light,Avenir" font-size="50.0" fill="#FEFFFF" transform="matrix(1.00, 0.00, -0.00, -1.00, 629.5, 675.3)">n</text><text xml:space="preserve" font-family="Avenir-Light,Avenir" font-size="50.0" fill="#FEFFFF" transform="matrix(1.00, 0.00, -0.00, -1.00, 657.4, 675.3)">p</text><text xml:space="preserve" font-family="Avenir-Light,Avenir" font-size="50.0" fill="#FEFFFF" transform="matrix(1.00, 0.00, -0.00, -1.00, 687.9, 675.3)">o</text><text xml:space="preserve" font-family="Avenir-Light,Avenir" font-size="50.0" fill="#FEFFFF" transform="matrix(1.00, 0.00, -0.00, -1.00, 717.6, 675.3)">s</text><text xml:space="preserve" font-family="Avenir-Light,Avenir" font-size="50.0" fill="#FEFFFF" transform="matrix(1.00, 0.00, -0.00, -1.00, 738.9, 675.3)">t</text><text xml:space="preserve" font-family="Avenir-Light,Avenir" font-size="50.0" fill="#FEFFFF" transform="matrix(1.00, 0.00, -0.00, -1.00, 755.5, 675.3)">.</text><text xml:space="preserve" font-family="Avenir-Light,Avenir" font-size="50.0" fill="#FEFFFF" transform="matrix(1.00, 0.00, -0.00, -1.00, 768.5, 675.3)">c</text><text xml:space="preserve" font-family="Avenir-Light,Avenir" font-size="50.0" fill="#FEFFFF" transform="matrix(1.00, 0.00, -0.00, -1.00, 792.6, 675.3)">o</text><text xml:space="preserve" font-family="Avenir-Light,Avenir" font-size="50.0" fill="#FEFFFF" transform="matrix(1.00, 0.00, -0.00, -1.00, 822.3, 675.3)">m</text><text xml:space="preserve" font-family="Avenir-Light,Avenir" font-size="50.0" fill="#FEFFFF" transform="matrix(1.00, 0.00, -0.00, -1.00, 864.9, 675.3)">/</text><text xml:space="preserve" font-family="Avenir-Light,Avenir" font-size="50.0" fill="#FEFFFF" transform="matrix(1.00, 0.00, -0.00, -1.00, 883.4, 675.3)">2</text><text xml:space="preserve" font-family="Avenir-Light,Avenir" font-size="50.0" fill="#FEFFFF" transform="matrix(1.00, 0.00, -0.00, -1.00, 909.4, 675.3)">0</text><text xml:space="preserve" font-family="Avenir-Light,Avenir" font-size="50.0" fill="#FEFFFF" transform="matrix(1.00, 0.00, -0.00, -1.00, 935.4, 675.3)">1</text><text xml:space="preserve" font-family="Avenir-Light,Avenir" font-size="50.0" fill="#FEFFFF" transform="matrix(1.00, 0.00, -0.00, -1.00, 961.4, 675.3)">0</text><text xml:space="preserve" font-family="Avenir-Light,Avenir" font-size="50.0" fill="#FEFFFF" transform="matrix(1.00, 0.00, -0.00, -1.00, 987.4, 675.3)">/</text><text xml:space="preserve" font-family="Avenir-Light,Avenir" font-size="50.0" fill="#FEFFFF" transform="matrix(1.00, 0.00, -0.00, -1.00, 1005.9, 675.3)">1</text><text xml:space="preserve" font-family="Avenir-Light,Avenir" font-size="50.0" fill="#FEFFFF" transform="matrix(1.00, 0.00, -0.00, -1.00, 1031.9, 675.3)">1</text><text xml:space="preserve" font-family="Avenir-Light,Avenir" font-size="50.0" fill="#FEFFFF" transform="matrix(1.00, 0.00, -0.00, -1.00, 1057.9, 675.3)">/</text><text xml:space="preserve" font-family="Avenir-Light,Avenir" font-size="50.0" fill="#FEFFFF" transform="matrix(1.00, 0.00, -0.00, -1.00, 1076.4, 675.3)">2</text><text xml:space="preserve" font-family="Avenir-Light,Avenir" font-size="50.0" fill="#FEFFFF" transform="matrix(1.00, 0.00, -0.00, -1.00, 1102.4, 675.3)">1</text><text xml:space="preserve" font-family="Avenir-Light,Avenir" font-size="50.0" fill="#FEFFFF" transform="matrix(1.00, 0.00, -0.00, -1.00, 1128.4, 675.3)">/</text><text xml:space="preserve" font-family="Avenir-Light,Avenir" font-size="50.0" fill="#FEFFFF" transform="matrix(1.00, 0.00, -0.00, -1.00, 1146.9, 675.3)">s</text><text xml:space="preserve" font-family="Avenir-Light,Avenir" font-size="50.0" fill="#FEFFFF" transform="matrix(1.00, 0.00, -0.00, -1.00, 1168.2, 675.3)">i</text><text xml:space="preserve" font-family="Avenir-Light,Avenir" font-size="50.0" fill="#FEFFFF" transform="matrix(1.00, 0.00, -0.00, -1.00, 1180.2, 675.3)">b</text><text xml:space="preserve" font-family="Avenir-Light,Avenir" font-size="50.0" fill="#FEFFFF" transform="matrix(1.00, 0.00, -0.00, -1.00, 1210.8, 675.3)">e</text><text xml:space="preserve" font-family="Avenir-Light,Avenir" font-size="50.0" fill="#FEFFFF" transform="matrix(1.00, 0.00, -0.00, -1.00, 1238.5, 675.3)">r</text><text xml:space="preserve" font-family="Avenir-Light,Avenir" font-size="50.0" fill="#FEFFFF" transform="matrix(1.00, 0.00, -0.00, -1.00, 1255.2, 675.3)">i</text><text xml:space="preserve" font-family="Avenir-Light,Avenir" font-size="50.0" fill="#FEFFFF" transform="matrix(1.00, 0.00, -0.00, -1.00, 1267.2, 675.3)">a</text><text xml:space="preserve" font-family="Avenir-Light,Avenir" font-size="50.0" fill="#FEFFFF" transform="matrix(1.00, 0.00, -0.00, -1.00, 1293.2, 675.3)">-</text><text xml:space="preserve" font-family="Avenir-Light,Avenir" font-size="50.0" fill="#FEFFFF" transform="matrix(1.00, 0.00, -0.00, -1.00, 1309.8, 675.3)">c</text><text xml:space="preserve" font-family="Avenir-Light,Avenir" font-size="50.0" fill="#FEFFFF" transform="matrix(1.00, 0.00, -0.00, -1.00, 1333.9, 675.3)">l</text><text xml:space="preserve" font-family="Avenir-Light,Avenir" font-size="50.0" fill="#FEFFFF" transform="matrix(1.00, 0.00, -0.00, -1.00, 1345.9, 675.3)">i</text><text xml:space="preserve" font-family="Avenir-Light,Avenir" font-size="50.0" fill="#FEFFFF" transform="matrix(1.00, 0.00, -0.00, -1.00, 1357.9, 675.3)">m</text><text xml:space="preserve" font-family="Avenir-Light,Avenir" font-size="50.0" fill="#FEFFFF" transform="matrix(1.00, 0.00, -0.00, -1.00, 1400.5, 675.3)">a</text><text xml:space="preserve" font-family="Avenir-Light,Avenir" font-size="50.0" fill="#FEFFFF" transform="matrix(1.00, 0.00, -0.00, -1.00, 1426.5, 675.3)">t</text><text xml:space="preserve" font-family="Avenir-Light,Avenir" font-size="50.0" fill="#FEFFFF" transform="matrix(1.00, 0.00, -0.00, -1.00, 1443.1, 675.3)">e</text><text xml:space="preserve" font-family="Avenir-Light,Avenir" font-size="50.0" fill="#FEFFFF" transform="matrix(1.00, 0.00, -0.00, -1.00, 1470.9, 675.3)">-</text><text xml:space="preserve" font-family="Avenir-Light,Avenir" font-size="50.0" fill="#FEFFFF" transform="matrix(1.00, 0.00, -0.00, -1.00, 1487.6, 675.3)">c</text><text xml:space="preserve" font-family="Avenir-Light,Avenir" font-size="50.0" fill="#FEFFFF" transform="matrix(1.00, 0.00, -0.00, -1.00, 1511.6, 675.3)">h</text><text xml:space="preserve" font-family="Avenir-Light,Avenir" font-size="50.0" fill="#FEFFFF" transform="matrix(1.00, 0.00, -0.00, -1.00, 1539.4, 675.3)">a</text><text xml:space="preserve" font-family="Avenir-Light,Avenir" font-size="50.0" fill="#FEFFFF" transform="matrix(1.00, 0.00, -0.00, -1.00, 1565.4, 675.3)">n</text><text xml:space="preserve" font-family="Avenir-Light,Avenir" font-size="50.0" fill="#FEFFFF" transform="matrix(1.00, 0.00, -0.00, -1.00, 1593.2, 675.3)">g</text><text xml:space="preserve" font-family="Avenir-Light,Avenir" font-size="50.0" fill="#FEFFFF" transform="matrix(1.00, 0.00, -0.00, -1.00, 1623.7, 675.3)">e</text><text xml:space="preserve" font-family="Avenir-Light,Avenir" font-size="50.0" fill="#FEFFFF" transform="matrix(1.00, 0.00, -0.00, -1.00, 1651.5, 675.3)">-</text><g><clipPath id="clip0x6000018b6aa0"><path d="M 170.0 669.3 L 1668.2 669.3 L 1668.2 673.8 L 170.0 673.8 Z M 170.0 669.3 "></path></clipPath><g clip-path="url(#clip0x6000018b6aa0)"><path d="M 74.0 184.5 L 1571.2 184.5 " fill="none" stroke="#FEFFFF" stroke-width="2.50" transform="matrix(1.00, 0.00, 0.00, -1.00, 97.0, 856.0)"></path></g></g><text xml:space="preserve" font-family="Avenir-Light,Avenir" font-size="50.0" fill="#FEFFFF" transform="matrix(1.00, 0.00, -0.00, -1.00, 171.0, 607.3)">m</text><text xml:space="preserve" font-family="Avenir-Light,Avenir" font-size="50.0" fill="#FEFFFF" transform="matrix(1.00, 0.00, -0.00, -1.00, 213.6, 607.3)">e</text><text xml:space="preserve" font-family="Avenir-Light,Avenir" font-size="50.0" fill="#FEFFFF" transform="matrix(1.00, 0.00, -0.00, -1.00, 241.4, 607.3)">t</text><text xml:space="preserve" font-family="Avenir-Light,Avenir" font-size="50.0" fill="#FEFFFF" transform="matrix(1.00, 0.00, -0.00, -1.00, 258.1, 607.3)">h</text><text xml:space="preserve" font-family="Avenir-Light,Avenir" font-size="50.0" fill="#FEFFFF" transform="matrix(1.00, 0.00, -0.00, -1.00, 285.9, 607.3)">a</text><text xml:space="preserve" font-family="Avenir-Light,Avenir" font-size="50.0" fill="#FEFFFF" transform="matrix(1.00, 0.00, -0.00, -1.00, 311.9, 607.3)">n</text><text xml:space="preserve" font-family="Avenir-Light,Avenir" font-size="50.0" fill="#FEFFFF" transform="matrix(1.00, 0.00, -0.00, -1.00, 339.6, 607.3)">e</text><text xml:space="preserve" font-family="Avenir-Light,Avenir" font-size="50.0" fill="#FEFFFF" transform="matrix(1.00, 0.00, -0.00, -1.00, 367.5, 607.3)">_</text><text xml:space="preserve" font-family="Avenir-Light,Avenir" font-size="50.0" fill="#FEFFFF" transform="matrix(1.00, 0.00, -0.00, -1.00, 392.5, 607.3)">n</text><text xml:space="preserve" font-family="Avenir-Light,Avenir" font-size="50.0" fill="#FEFFFF" transform="matrix(1.00, 0.00, -0.00, -1.00, 420.2, 607.3)">_</text><text xml:space="preserve" font-family="Avenir-Light,Avenir" font-size="50.0" fill="#FEFFFF" transform="matrix(1.00, 0.00, -0.00, -1.00, 445.2, 607.3)">7</text><text xml:space="preserve" font-family="Avenir-Light,Avenir" font-size="50.0" fill="#FEFFFF" transform="matrix(1.00, 0.00, -0.00, -1.00, 471.2, 607.3)">8</text><text xml:space="preserve" font-family="Avenir-Light,Avenir" font-size="50.0" fill="#FEFFFF" transform="matrix(1.00, 0.00, -0.00, -1.00, 497.2, 607.3)">6</text><text xml:space="preserve" font-family="Avenir-Light,Avenir" font-size="50.0" fill="#FEFFFF" transform="matrix(1.00, 0.00, -0.00, -1.00, 523.2, 607.3)">5</text><text xml:space="preserve" font-family="Avenir-Light,Avenir" font-size="50.0" fill="#FEFFFF" transform="matrix(1.00, 0.00, -0.00, -1.00, 549.2, 607.3)">5</text><text xml:space="preserve" font-family="Avenir-Light,Avenir" font-size="50.0" fill="#FEFFFF" transform="matrix(1.00, 0.00, -0.00, -1.00, 575.2, 607.3)">4</text><text xml:space="preserve" font-family="Avenir-Light,Avenir" font-size="50.0" fill="#FEFFFF" transform="matrix(1.00, 0.00, -0.00, -1.00, 601.2, 607.3)">.</text><text xml:space="preserve" font-family="Avenir-Light,Avenir" font-size="50.0" fill="#FEFFFF" transform="matrix(1.00, 0.00, -0.00, -1.00, 614.2, 607.3)">h</text><text xml:space="preserve" font-family="Avenir-Light,Avenir" font-size="50.0" fill="#FEFFFF" transform="matrix(1.00, 0.00, -0.00, -1.00, 642.0, 607.3)">t</text><text xml:space="preserve" font-family="Avenir-Light,Avenir" font-size="50.0" fill="#FEFFFF" transform="matrix(1.00, 0.00, -0.00, -1.00, 658.7, 607.3)">m</text><text xml:space="preserve" font-family="Avenir-Light,Avenir" font-size="50.0" fill="#FEFFFF" transform="matrix(1.00, 0.00, -0.00, -1.00, 701.3, 607.3)">l</text><text xml:space="preserve" font-family="Avenir-Light,Avenir" font-size="50.0" fill="#FEFFFF" transform="matrix(1.00, 0.00, -0.00, -1.00, 713.3, 607.3)"> </text><g><clipPath id="clip0x6000018b75e0"><path d="M 170.0 601.3 L 713.3 601.3 L 713.3 605.8 L 170.0 605.8 Z M 170.0 601.3 "></path></clipPath><g clip-path="url(#clip0x6000018b75e0)"><path d="M 74.0 252.5 L 616.3 252.5 " fill="none" stroke="#FEFFFF" stroke-width="2.50" transform="matrix(1.00, 0.00, 0.00, -1.00, 97.0, 856.0)"></path></g></g><text xml:space="preserve" font-family="Avenir-Light,Avenir" font-size="50.0" fill="#FEFFFF" transform="matrix(1.00, 0.00, -0.00, -1.00, 101.0, 480.3)">3</text><text xml:space="preserve" font-family="Avenir-Light,Avenir" font-size="50.0" fill="#FEFFFF" transform="matrix(1.00, 0.00, -0.00, -1.00, 127.0, 480.3)">.</text><text xml:space="preserve" font-family="Avenir-Light,Avenir" font-size="50.0" fill="#FEFFFF" transform="matrix(1.00, 0.00, -0.00, -1.00, 171.0, 480.3)">h</text><text xml:space="preserve" font-family="Avenir-Light,Avenir" font-size="50.0" fill="#FEFFFF" transform="matrix(1.00, 0.00, -0.00, -1.00, 198.8, 480.3)">t</text><text xml:space="preserve" font-family="Avenir-Light,Avenir" font-size="50.0" fill="#FEFFFF" transform="matrix(1.00, 0.00, -0.00, -1.00, 215.5, 480.3)">t</text><text xml:space="preserve" font-family="Avenir-Light,Avenir" font-size="50.0" fill="#FEFFFF" transform="matrix(1.00, 0.00, -0.00, -1.00, 232.2, 480.3)">p</text><text xml:space="preserve" font-family="Avenir-Light,Avenir" font-size="50.0" fill="#FEFFFF" transform="matrix(1.00, 0.00, -0.00, -1.00, 262.7, 480.3)">:</text><text xml:space="preserve" font-family="Avenir-Light,Avenir" font-size="50.0" fill="#FEFFFF" transform="matrix(1.00, 0.00, -0.00, -1.00, 275.7, 480.3)">/</text><text xml:space="preserve" font-family="Avenir-Light,Avenir" font-size="50.0" fill="#FEFFFF" transform="matrix(1.00, 0.00, -0.00, -1.00, 294.2, 480.3)">/</text><text xml:space="preserve" font-family="Avenir-Light,Avenir" font-size="50.0" fill="#FEFFFF" transform="matrix(1.00, 0.00, -0.00, -1.00, 312.7, 480.3)">i</text><text xml:space="preserve" font-family="Avenir-Light,Avenir" font-size="50.0" fill="#FEFFFF" transform="matrix(1.00, 0.00, -0.00, -1.00, 324.7, 480.3)">.</text><text xml:space="preserve" font-family="Avenir-Light,Avenir" font-size="50.0" fill="#FEFFFF" transform="matrix(1.00, 0.00, -0.00, -1.00, 337.7, 480.3)">i</text><text xml:space="preserve" font-family="Avenir-Light,Avenir" font-size="50.0" fill="#FEFFFF" transform="matrix(1.00, 0.00, -0.00, -1.00, 349.7, 480.3)">m</text><text xml:space="preserve" font-family="Avenir-Light,Avenir" font-size="50.0" fill="#FEFFFF" transform="matrix(1.00, 0.00, -0.00, -1.00, 392.3, 480.3)">g</text><text xml:space="preserve" font-family="Avenir-Light,Avenir" font-size="50.0" fill="#FEFFFF" transform="matrix(1.00, 0.00, -0.00, -1.00, 422.9, 480.3)">u</text><text xml:space="preserve" font-family="Avenir-Light,Avenir" font-size="50.0" fill="#FEFFFF" transform="matrix(1.00, 0.00, -0.00, -1.00, 450.6, 480.3)">r</text><text xml:space="preserve" font-family="Avenir-Light,Avenir" font-size="50.0" fill="#FEFFFF" transform="matrix(1.00, 0.00, -0.00, -1.00, 462.7, 480.3)">.</text><text xml:space="preserve" font-family="Avenir-Light,Avenir" font-size="50.0" fill="#FEFFFF" transform="matrix(1.00, 0.00, -0.00, -1.00, 475.7, 480.3)">c</text><text xml:space="preserve" font-family="Avenir-Light,Avenir" font-size="50.0" fill="#FEFFFF" transform="matrix(1.00, 0.00, -0.00, -1.00, 499.7, 480.3)">o</text><text xml:space="preserve" font-family="Avenir-Light,Avenir" font-size="50.0" fill="#FEFFFF" transform="matrix(1.00, 0.00, -0.00, -1.00, 529.4, 480.3)">m</text><text xml:space="preserve" font-family="Avenir-Light,Avenir" font-size="50.0" fill="#FEFFFF" transform="matrix(1.00, 0.00, -0.00, -1.00, 572.0, 480.3)">/</text><text xml:space="preserve" font-family="Avenir-Light,Avenir" font-size="50.0" fill="#FEFFFF" transform="matrix(1.00, 0.00, -0.00, -1.00, 590.5, 480.3)">Q</text><text xml:space="preserve" font-family="Avenir-Light,Avenir" font-size="50.0" fill="#FEFFFF" transform="matrix(1.00, 0.00, -0.00, -1.00, 632.2, 480.3)">T</text><text xml:space="preserve" font-family="Avenir-Light,Avenir" font-size="50.0" fill="#FEFFFF" transform="matrix(1.00, 0.00, -0.00, -1.00, 660.9, 480.3)">d</text><text xml:space="preserve" font-family="Avenir-Light,Avenir" font-size="50.0" fill="#FEFFFF" transform="matrix(1.00, 0.00, -0.00, -1.00, 691.5, 480.3)">t</text><text xml:space="preserve" font-family="Avenir-Light,Avenir" font-size="50.0" fill="#FEFFFF" transform="matrix(1.00, 0.00, -0.00, -1.00, 708.2, 480.3)">R</text><text xml:space="preserve" font-family="Avenir-Light,Avenir" font-size="50.0" fill="#FEFFFF" transform="matrix(1.00, 0.00, -0.00, -1.00, 737.8, 480.3)">8</text><text xml:space="preserve" font-family="Avenir-Light,Avenir" font-size="50.0" fill="#FEFFFF" transform="matrix(1.00, 0.00, -0.00, -1.00, 763.8, 480.3)">1</text><text xml:space="preserve" font-family="Avenir-Light,Avenir" font-size="50.0" fill="#FEFFFF" transform="matrix(1.00, 0.00, -0.00, -1.00, 789.8, 480.3)">.</text><text xml:space="preserve" font-family="Avenir-Light,Avenir" font-size="50.0" fill="#FEFFFF" transform="matrix(1.00, 0.00, -0.00, -1.00, 802.8, 480.3)">p</text><text xml:space="preserve" font-family="Avenir-Light,Avenir" font-size="50.0" fill="#FEFFFF" transform="matrix(1.00, 0.00, -0.00, -1.00, 833.4, 480.3)">n</text><text xml:space="preserve" font-family="Avenir-Light,Avenir" font-size="50.0" fill="#FEFFFF" transform="matrix(1.00, 0.00, -0.00, -1.00, 861.2, 480.3)">g</text><g><clipPath id="clip0x6000018b8480"><path d="M 170.0 474.3 L 891.8 474.3 L 891.8 478.8 L 170.0 478.8 Z M 170.0 474.3 "></path></clipPath><g clip-path="url(#clip0x6000018b8480)"><path d="M 74.0 379.5 L 794.8 379.5 " fill="none" stroke="#FEFFFF" stroke-width="2.50" transform="matrix(1.00, 0.00, 0.00, -1.00, 97.0, 856.0)"></path></g></g></g></svg>