<?xml version="1.0" encoding="UTF-8" standalone="no"?><svg xmlns="http://www.w3.org/2000/svg" xmlns:xlink="http://www.w3.org/1999/xlink" clip-rule="evenodd" stroke-miterlimit="10" viewBox="0 0 1920 1080"><desc>SVG generated by Keynote</desc><defs></defs><g transform="matrix(1.00, 0.00, -0.00, -1.00, 0.0, 1080.0)"><path d="M 0.0 1080.0 L 1920.0 1080.0 L 1920.0 0.0 L 0.0 0.0 Z M 0.0 1080.0 " fill="#000000"></path><text xml:space="preserve" font-family="Avenir-Light,Avenir" font-size="86.0" fill="#FEFFFF" transform="matrix(1.00, 0.00, -0.00, -1.00, 203.8, 679.9)">T</text><text xml:space="preserve" font-family="Avenir-Light,Avenir" font-size="86.0" fill="#FEFFFF" transform="matrix(1.00, 0.00, -0.00, -1.00, 266.9, 679.9)">H</text><text xml:space="preserve" font-family="Avenir-Light,Avenir" font-size="86.0" fill="#FEFFFF" transform="matrix(1.00, 0.00, -0.00, -1.00, 342.8, 679.9)">I</text><text xml:space="preserve" font-family="Avenir-Light,Avenir" font-size="86.0" fill="#FEFFFF" transform="matrix(1.00, 0.00, -0.00, -1.00, 378.9, 679.9)">S</text><text xml:space="preserve" font-family="Avenir-Light,Avenir" font-size="86.0" fill="#FEFFFF" transform="matrix(1.00, 0.00, -0.00, -1.00, 440.4, 679.9)"> </text><text xml:space="preserve" font-family="Avenir-Light,Avenir" font-size="86.0" fill="#FEFFFF" transform="matrix(1.00, 0.00, -0.00, -1.00, 476.6, 679.9)">P</text><text xml:space="preserve" font-family="Avenir-Light,Avenir" font-size="86.0" fill="#FEFFFF" transform="matrix(1.00, 0.00, -0.00, -1.00, 539.7, 679.9)">R</text><text xml:space="preserve" font-family="Avenir-Light,Avenir" font-size="86.0" fill="#FEFFFF" transform="matrix(1.00, 0.00, -0.00, -1.00, 604.4, 679.9)">E</text><text xml:space="preserve" font-family="Avenir-Light,Avenir" font-size="86.0" fill="#FEFFFF" transform="matrix(1.00, 0.00, -0.00, -1.00, 669.2, 679.9)">S</text><text xml:space="preserve" font-family="Avenir-Light,Avenir" font-size="86.0" fill="#FEFFFF" transform="matrix(1.00, 0.00, -0.00, -1.00, 730.8, 679.9)">E</text><text xml:space="preserve" font-family="Avenir-Light,Avenir" font-size="86.0" fill="#FEFFFF" transform="matrix(1.00, 0.00, -0.00, -1.00, 795.5, 679.9)">N</text><text xml:space="preserve" font-family="Avenir-Light,Avenir" font-size="86.0" fill="#FEFFFF" transform="matrix(1.00, 0.00, -0.00, -1.00, 876.2, 679.9)">T</text><text xml:space="preserve" font-family="Avenir-Light,Avenir" font-size="86.0" fill="#FEFFFF" transform="matrix(1.00, 0.00, -0.00, -1.00, 933.5, 679.9)">A</text><text xml:space="preserve" font-family="Avenir-Light,Avenir" font-size="86.0" fill="#FEFFFF" transform="matrix(1.00, 0.00, -0.00, -1.00, 1000.3, 679.9)">T</text><text xml:space="preserve" font-family="Avenir-Light,Avenir" font-size="86.0" fill="#FEFFFF" transform="matrix(1.00, 0.00, -0.00, -1.00, 1063.4, 679.9)">I</text><text xml:space="preserve" font-family="Avenir-Light,Avenir" font-size="86.0" fill="#FEFFFF" transform="matrix(1.00, 0.00, -0.00, -1.00, 1099.6, 679.9)">O</text><text xml:space="preserve" font-family="Avenir-Light,Avenir" font-size="86.0" fill="#FEFFFF" transform="matrix(1.00, 0.00, -0.00, -1.00, 1185.0, 679.9)">N</text><text xml:space="preserve" font-family="Avenir-Light,Avenir" font-size="86.0" fill="#FEFFFF" transform="matrix(1.00, 0.00, -0.00, -1.00, 1265.7, 679.9)"> </text><text xml:space="preserve" font-family="Avenir-Light,Avenir" font-size="86.0" fill="#FEFFFF" transform="matrix(1.00, 0.00, -0.00, -1.00, 1301.8, 679.9)">W</text><text xml:space="preserve" font-family="Avenir-Light,Avenir" font-size="86.0" fill="#FEFFFF" transform="matrix(1.00, 0.00, -0.00, -1.00, 1396.8, 679.9)">I</text><text xml:space="preserve" font-family="Avenir-Light,Avenir" font-size="86.0" fill="#FEFFFF" transform="matrix(1.00, 0.00, -0.00, -1.00, 1432.9, 679.9)">L</text><text xml:space="preserve" font-family="Avenir-Light,Avenir" font-size="86.0" fill="#FEFFFF" transform="matrix(1.00, 0.00, -0.00, -1.00, 1489.6, 679.9)">L</text><text xml:space="preserve" font-family="Avenir-Light,Avenir" font-size="86.0" fill="#FEFFFF" transform="matrix(1.00, 0.00, -0.00, -1.00, 1546.4, 679.9)"> </text><text xml:space="preserve" font-family="Avenir-Light,Avenir" font-size="86.0" fill="#FEFFFF" transform="matrix(1.00, 0.00, -0.00, -1.00, 1582.5, 679.9)">B</text><text xml:space="preserve" font-family="Avenir-Light,Avenir" font-size="86.0" fill="#FEFFFF" transform="matrix(1.00, 0.00, -0.00, -1.00, 1650.5, 679.9)">E</text><text xml:space="preserve" font-family="Avenir-Light,Avenir" font-size="86.0" fill="#FEFFFF" transform="matrix(1.00, 0.00, -0.00, -1.00, 1715.2, 679.9)"> </text><text xml:space="preserve" font-family="Avenir-Light,Avenir" font-size="86.0" fill="#FEFFFF" transform="matrix(1.00, 0.00, -0.00, -1.00, 461.2, 562.9)">A</text><text xml:space="preserve" font-family="Avenir-Light,Avenir" font-size="86.0" fill="#FEFFFF" transform="matrix(1.00, 0.00, -0.00, -1.00, 529.5, 562.9)">V</text><text xml:space="preserve" font-family="Avenir-Light,Avenir" font-size="86.0" fill="#FEFFFF" transform="matrix(1.00, 0.00, -0.00, -1.00, 589.6, 562.9)">A</text><text xml:space="preserve" font-family="Avenir-Light,Avenir" font-size="86.0" fill="#FEFFFF" transform="matrix(1.00, 0.00, -0.00, -1.00, 662.2, 562.9)">I</text><text xml:space="preserve" font-family="Avenir-Light,Avenir" font-size="86.0" fill="#FEFFFF" transform="matrix(1.00, 0.00, -0.00, -1.00, 698.4, 562.9)">L</text><text xml:space="preserve" font-family="Avenir-Light,Avenir" font-size="86.0" fill="#FEFFFF" transform="matrix(1.00, 0.00, -0.00, -1.00, 755.1, 562.9)">A</text><text xml:space="preserve" font-family="Avenir-Light,Avenir" font-size="86.0" fill="#FEFFFF" transform="matrix(1.00, 0.00, -0.00, -1.00, 827.8, 562.9)">B</text><text xml:space="preserve" font-family="Avenir-Light,Avenir" font-size="86.0" fill="#FEFFFF" transform="matrix(1.00, 0.00, -0.00, -1.00, 895.7, 562.9)">L</text><text xml:space="preserve" font-family="Avenir-Light,Avenir" font-size="86.0" fill="#FEFFFF" transform="matrix(1.00, 0.00, -0.00, -1.00, 952.5, 562.9)">E</text><text xml:space="preserve" font-family="Avenir-Light,Avenir" font-size="86.0" fill="#FEFFFF" transform="matrix(1.00, 0.00, -0.00, -1.00, 1017.2, 562.9)"> </text><text xml:space="preserve" font-family="Avenir-Light,Avenir" font-size="86.0" fill="#FEFFFF" transform="matrix(1.00, 0.00, -0.00, -1.00, 1053.4, 562.9)">O</text><text xml:space="preserve" font-family="Avenir-Light,Avenir" font-size="86.0" fill="#FEFFFF" transform="matrix(1.00, 0.00, -0.00, -1.00, 1138.9, 562.9)">N</text><text xml:space="preserve" font-family="Avenir-Light,Avenir" font-size="86.0" fill="#FEFFFF" transform="matrix(1.00, 0.00, -0.00, -1.00, 1219.5, 562.9)">L</text><text xml:space="preserve" font-family="Avenir-Light,Avenir" font-size="86.0" fill="#FEFFFF" transform="matrix(1.00, 0.00, -0.00, -1.00, 1276.3, 562.9)">I</text><text xml:space="preserve" font-family="Avenir-Light,Avenir" font-size="86.0" fill="#FEFFFF" transform="matrix(1.00, 0.00, -0.00, -1.00, 1312.4, 562.9)">N</text><text xml:space="preserve" font-family="Avenir-Light,Avenir" font-size="86.0" fill="#FEFFFF" transform="matrix(1.00, 0.00, -0.00, -1.00, 1393.1, 562.9)">E</text><text xml:space="preserve" font-family="Avenir-Light,Avenir" font-size="86.0" fill="#FEFFFF" transform="matrix(1.00, 0.00, -0.00, -1.00, 1457.8, 562.9)"> </text><text xml:space="preserve" font-family="Avenir-Light,Avenir" font-size="86.0" fill="#FEFFFF" transform="matrix(1.00, 0.00, -0.00, -1.00, 918.2, 445.9)">@</text><text xml:space="preserve" font-family="Avenir-Light,Avenir" font-size="86.0" fill="#FEFFFF" transform="matrix(1.00, 0.00, -0.00, -1.00, 1000.8, 445.9)"> </text><text xml:space="preserve" font-family="Avenir-Light,Avenir" font-size="86.0" fill="#FEFFFF" transform="matrix(1.00, 0.00, -0.00, -1.00, 1036.9, 445.9)"> </text><text xml:space="preserve" font-family="HelveticaNeue,Helvetica Neue" font-size="86.0" fill="#FEFFFF" transform="matrix(1.00, 0.00, -0.00, -1.00, 263.2, 333.1)">a</text><text xml:space="preserve" font-family="HelveticaNeue,Helvetica Neue" font-size="86.0" fill="#FEFFFF" transform="matrix(1.00, 0.00, -0.00, -1.00, 310.2, 333.1)">l</text><text xml:space="preserve" font-family="HelveticaNeue,Helvetica Neue" font-size="86.0" fill="#FEFFFF" transform="matrix(1.00, 0.00, -0.00, -1.00, 330.2, 333.1)">e</text><text xml:space="preserve" font-family="HelveticaNeue,Helvetica Neue" font-size="86.0" fill="#FEFFFF" transform="matrix(1.00, 0.00, -0.00, -1.00, 377.2, 333.1)">x</text><text xml:space="preserve" font-family="HelveticaNeue,Helvetica Neue" font-size="86.0" fill="#FEFFFF" transform="matrix(1.00, 0.00, -0.00, -1.00, 422.6, 333.1)">b</text><text xml:space="preserve" font-family="HelveticaNeue,Helvetica Neue" font-size="86.0" fill="#FEFFFF" transform="matrix(1.00, 0.00, -0.00, -1.00, 474.5, 333.1)">.</text><text xml:space="preserve" font-family="HelveticaNeue,Helvetica Neue" font-size="86.0" fill="#FEFFFF" transform="matrix(1.00, 0.00, -0.00, -1.00, 499.2, 333.1)">n</text><text xml:space="preserve" font-family="HelveticaNeue,Helvetica Neue" font-size="86.0" fill="#FEFFFF" transform="matrix(1.00, 0.00, -0.00, -1.00, 547.9, 333.1)">i</text><text xml:space="preserve" font-family="HelveticaNeue,Helvetica Neue" font-size="86.0" fill="#FEFFFF" transform="matrix(1.00, 0.00, -0.00, -1.00, 567.9, 333.1)">n</text><text xml:space="preserve" font-family="HelveticaNeue,Helvetica Neue" font-size="86.0" fill="#FEFFFF" transform="matrix(1.00, 0.00, -0.00, -1.00, 616.5, 333.1)">j</text><text xml:space="preserve" font-family="HelveticaNeue,Helvetica Neue" font-size="86.0" fill="#FEFFFF" transform="matrix(1.00, 0.00, -0.00, -1.00, 636.5, 333.1)">a</text><text xml:space="preserve" font-family="HelveticaNeue,Helvetica Neue" font-size="86.0" fill="#FEFFFF" transform="matrix(1.00, 0.00, -0.00, -1.00, 683.5, 333.1)">/</text><text xml:space="preserve" font-family="HelveticaNeue,Helvetica Neue" font-size="86.0" fill="#FEFFFF" transform="matrix(1.00, 0.00, -0.00, -1.00, 713.0, 333.1)">s</text><text xml:space="preserve" font-family="HelveticaNeue,Helvetica Neue" font-size="86.0" fill="#FEFFFF" transform="matrix(1.00, 0.00, -0.00, -1.00, 756.9, 333.1)">l</text><text xml:space="preserve" font-family="HelveticaNeue,Helvetica Neue" font-size="86.0" fill="#FEFFFF" transform="matrix(1.00, 0.00, -0.00, -1.00, 776.8, 333.1)">i</text><text xml:space="preserve" font-family="HelveticaNeue,Helvetica Neue" font-size="86.0" fill="#FEFFFF" transform="matrix(1.00, 0.00, -0.00, -1.00, 796.8, 333.1)">d</text><text xml:space="preserve" font-family="HelveticaNeue,Helvetica Neue" font-size="86.0" fill="#FEFFFF" transform="matrix(1.00, 0.00, -0.00, -1.00, 848.6, 333.1)">e</text><text xml:space="preserve" font-family="HelveticaNeue,Helvetica Neue" font-size="86.0" fill="#FEFFFF" transform="matrix(1.00, 0.00, -0.00, -1.00, 895.7, 333.1)">s</text><text xml:space="preserve" font-family="HelveticaNeue,Helvetica Neue" font-size="86.0" fill="#FEFFFF" transform="matrix(1.00, 0.00, -0.00, -1.00, 939.5, 333.1)">/</text><text xml:space="preserve" font-family="HelveticaNeue,Helvetica Neue" font-size="86.0" fill="#FEFFFF" transform="matrix(1.00, 0.00, -0.00, -1.00, 969.0, 333.1)">b</text><text xml:space="preserve" font-family="HelveticaNeue,Helvetica Neue" font-size="86.0" fill="#FEFFFF" transform="matrix(1.00, 0.00, -0.00, -1.00, 1020.9, 333.1)">i</text><text xml:space="preserve" font-family="HelveticaNeue,Helvetica Neue" font-size="86.0" fill="#FEFFFF" transform="matrix(1.00, 0.00, -0.00, -1.00, 1040.9, 333.1)">o</text><text xml:space="preserve" font-family="HelveticaNeue,Helvetica Neue" font-size="86.0" fill="#FEFFFF" transform="matrix(1.00, 0.00, -0.00, -1.00, 1091.1, 333.1)">/</text><text xml:space="preserve" font-family="HelveticaNeue,Helvetica Neue" font-size="86.0" fill="#FEFFFF" transform="matrix(1.00, 0.00, -0.00, -1.00, 1120.6, 333.1)">c</text><text xml:space="preserve" font-family="HelveticaNeue,Helvetica Neue" font-size="86.0" fill="#FEFFFF" transform="matrix(1.00, 0.00, -0.00, -1.00, 1167.6, 333.1)">u</text><text xml:space="preserve" font-family="HelveticaNeue,Helvetica Neue" font-size="86.0" fill="#FEFFFF" transform="matrix(1.00, 0.00, -0.00, -1.00, 1216.3, 333.1)">r</text><text xml:space="preserve" font-family="HelveticaNeue,Helvetica Neue" font-size="86.0" fill="#FEFFFF" transform="matrix(1.00, 0.00, -0.00, -1.00, 1245.8, 333.1)">r</text><text xml:space="preserve" font-family="HelveticaNeue,Helvetica Neue" font-size="86.0" fill="#FEFFFF" transform="matrix(1.00, 0.00, -0.00, -1.00, 1273.7, 333.1)">e</text><text xml:space="preserve" font-family="HelveticaNeue,Helvetica Neue" font-size="86.0" fill="#FEFFFF" transform="matrix(1.00, 0.00, -0.00, -1.00, 1320.8, 333.1)">n</text><text xml:space="preserve" font-family="HelveticaNeue,Helvetica Neue" font-size="86.0" fill="#FEFFFF" transform="matrix(1.00, 0.00, -0.00, -1.00, 1369.5, 333.1)">t</text><text xml:space="preserve" font-family="HelveticaNeue,Helvetica Neue" font-size="86.0" fill="#FEFFFF" transform="matrix(1.00, 0.00, -0.00, -1.00, 1397.4, 333.1)">e</text><text xml:space="preserve" font-family="HelveticaNeue,Helvetica Neue" font-size="86.0" fill="#FEFFFF" transform="matrix(1.00, 0.00, -0.00, -1.00, 1444.5, 333.1)">v</text><text xml:space="preserve" font-family="HelveticaNeue,Helvetica Neue" font-size="86.0" fill="#FEFFFF" transform="matrix(1.00, 0.00, -0.00, -1.00, 1488.3, 333.1)">e</text><text xml:space="preserve" font-family="HelveticaNeue,Helvetica Neue" font-size="86.0" fill="#FEFFFF" transform="matrix(1.00, 0.00, -0.00, -1.00, 1535.4, 333.1)">n</text><text xml:space="preserve" font-family="HelveticaNeue,Helvetica Neue" font-size="86.0" fill="#FEFFFF" transform="matrix(1.00, 0.00, -0.00, -1.00, 1584.0, 333.1)">t</text><text xml:space="preserve" font-family="HelveticaNeue,Helvetica Neue" font-size="86.0" fill="#FEFFFF" transform="matrix(1.00, 0.00, -0.00, -1.00, 1612.0, 333.1)">s</text><g><clipPath id="clip0x608001aa8880"><path d="M 262.2 321.4 L 1655.8 321.4 L 1655.8 327.7 L 262.2 327.7 Z M 262.2 321.4 "></path></clipPath><g clip-path="url(#clip0x608001aa8880)"><path d="M 166.2 611.9 L 1558.8 611.9 " fill="none" stroke="#FEFFFF" stroke-width="4.30" transform="matrix(1.00, 0.00, 0.00, -1.00, 97.0, 936.4)"></path></g></g></g></svg>