<?xml version="1.0" encoding="UTF-8" standalone="no"?><svg xmlns="http://www.w3.org/2000/svg" xmlns:xlink="http://www.w3.org/1999/xlink" clip-rule="evenodd" stroke-miterlimit="10" viewBox="0 0 1920 1080"><desc>SVG generated by Keynote</desc><defs></defs><g transform="matrix(1.00, 0.00, -0.00, -1.00, 0.0, 1080.0)"><path d="M 0.0 1080.0 L 1920.0 1080.0 L 1920.0 0.0 L 0.0 0.0 Z M 0.0 1080.0 " fill="#000000"></path><g><clipPath id="clip0x6000018b29c0"><path d="M 0.0 780.0 L 1920.0 780.0 L 1920.0 1.0 L 0.0 1.0 Z M 0.0 780.0 "></path></clipPath><g clip-path="url(#clip0x6000018b29c0)"><image xlink:href="../../9940B16B-7785-413B-B5D7-CB9A34C88105/assets/E7E0B853E1EBA8D413CF330EFB48F747.jpeg" width="4096.00" height="2898.00" transform="matrix(0.47, 0.00, -0.00, -0.47, 0.0, 1069.7)"></image></g></g><text xml:space="preserve" font-family="Avenir-Light,Avenir" font-size="85.1" fill="#FEFFFF" transform="matrix(1.00, 0.00, -0.00, -1.00, 101.5, 902.3)">Q</text><text xml:space="preserve" font-family="Avenir-Light,Avenir" font-size="85.1" fill="#FEFFFF" transform="matrix(1.00, 0.00, -0.00, -1.00, 186.1, 902.3)">U</text><text xml:space="preserve" font-family="Avenir-Light,Avenir" font-size="85.1" fill="#FEFFFF" transform="matrix(1.00, 0.00, -0.00, -1.00, 258.0, 902.3)">E</text><text xml:space="preserve" font-family="Avenir-Light,Avenir" font-size="85.1" fill="#FEFFFF" transform="matrix(1.00, 0.00, -0.00, -1.00, 322.1, 902.3)">S</text><text xml:space="preserve" font-family="Avenir-Light,Avenir" font-size="85.1" fill="#FEFFFF" transform="matrix(1.00, 0.00, -0.00, -1.00, 383.1, 902.3)">T</text><text xml:space="preserve" font-family="Avenir-Light,Avenir" font-size="85.1" fill="#FEFFFF" transform="matrix(1.00, 0.00, -0.00, -1.00, 445.6, 902.3)">I</text><text xml:space="preserve" font-family="Avenir-Light,Avenir" font-size="85.1" fill="#FEFFFF" transform="matrix(1.00, 0.00, -0.00, -1.00, 481.3, 902.3)">O</text><text xml:space="preserve" font-family="Avenir-Light,Avenir" font-size="85.1" fill="#FEFFFF" transform="matrix(1.00, 0.00, -0.00, -1.00, 565.9, 902.3)">N</text><text xml:space="preserve" font-family="Avenir-Light,Avenir" font-size="85.1" fill="#FEFFFF" transform="matrix(1.00, 0.00, -0.00, -1.00, 645.8, 902.3)">S</text></g></svg>