<?xml version="1.0" encoding="UTF-8" standalone="no"?><svg xmlns="http://www.w3.org/2000/svg" xmlns:xlink="http://www.w3.org/1999/xlink" clip-rule="evenodd" stroke-miterlimit="10" viewBox="0 0 1024 768"><desc>SVG generated by Keynote</desc><defs></defs><g transform="matrix(1.00, 0.00, -0.00, -1.00, 0.0, 768.0)"><path d="M 0.0 768.0 L 1024.0 768.0 L 1024.0 0.0 L 0.0 0.0 Z M 0.0 768.0 " fill="#000000"></path><text xml:space="preserve" font-family="Avenir-Light,Avenir" font-size="45.0" fill="#FEFFFF" transform="matrix(1.00, 0.00, -0.00, -1.00, 56.0, 671.5)">C</text><text xml:space="preserve" font-family="Avenir-Light,Avenir" font-size="45.0" fill="#FEFFFF" transform="matrix(1.00, 0.00, -0.00, -1.00, 94.9, 671.5)">L</text><text xml:space="preserve" font-family="Avenir-Light,Avenir" font-size="45.0" fill="#FEFFFF" transform="matrix(1.00, 0.00, -0.00, -1.00, 124.6, 671.5)">A</text><text xml:space="preserve" font-family="Avenir-Light,Avenir" font-size="45.0" fill="#FEFFFF" transform="matrix(1.00, 0.00, -0.00, -1.00, 162.6, 671.5)">I</text><text xml:space="preserve" font-family="Avenir-Light,Avenir" font-size="45.0" fill="#FEFFFF" transform="matrix(1.00, 0.00, -0.00, -1.00, 181.5, 671.5)">M</text><text xml:space="preserve" font-family="Avenir-Light,Avenir" font-size="32.4" fill="#646363" transform="matrix(1.00, 0.00, -0.00, -1.00, 56.0, 523.4)">•</text><text xml:space="preserve" font-family="Avenir-Light,Avenir" font-size="36.0" fill="#FEFFFF" transform="matrix(1.00, 0.00, -0.00, -1.00, 93.0, 522.2)">T</text><text xml:space="preserve" font-family="Avenir-Light,Avenir" font-size="36.0" fill="#FEFFFF" transform="matrix(1.00, 0.00, -0.00, -1.00, 113.7, 522.2)">h</text><text xml:space="preserve" font-family="Avenir-Light,Avenir" font-size="36.0" fill="#FEFFFF" transform="matrix(1.00, 0.00, -0.00, -1.00, 133.7, 522.2)">e</text><text xml:space="preserve" font-family="Avenir-Light,Avenir" font-size="36.0" fill="#FEFFFF" transform="matrix(1.00, 0.00, -0.00, -1.00, 153.7, 522.2)"> </text><text xml:space="preserve" font-family="Avenir-Light,Avenir" font-size="36.0" fill="#FEFFFF" transform="matrix(1.00, 0.00, -0.00, -1.00, 163.1, 522.2)">a</text><text xml:space="preserve" font-family="Avenir-Light,Avenir" font-size="36.0" fill="#FEFFFF" transform="matrix(1.00, 0.00, -0.00, -1.00, 181.7, 522.2)">r</text><text xml:space="preserve" font-family="Avenir-Light,Avenir" font-size="36.0" fill="#FEFFFF" transform="matrix(1.00, 0.00, -0.00, -1.00, 193.7, 522.2)">t</text><text xml:space="preserve" font-family="Avenir-Light,Avenir" font-size="36.0" fill="#FEFFFF" transform="matrix(1.00, 0.00, -0.00, -1.00, 205.8, 522.2)">i</text><text xml:space="preserve" font-family="Avenir-Light,Avenir" font-size="36.0" fill="#FEFFFF" transform="matrix(1.00, 0.00, -0.00, -1.00, 214.4, 522.2)">c</text><text xml:space="preserve" font-family="Avenir-Light,Avenir" font-size="36.0" fill="#FEFFFF" transform="matrix(1.00, 0.00, -0.00, -1.00, 231.7, 522.2)">l</text><text xml:space="preserve" font-family="Avenir-Light,Avenir" font-size="36.0" fill="#FEFFFF" transform="matrix(1.00, 0.00, -0.00, -1.00, 240.3, 522.2)">e</text><text xml:space="preserve" font-family="Avenir-Light,Avenir" font-size="36.0" fill="#FEFFFF" transform="matrix(1.00, 0.00, -0.00, -1.00, 260.4, 522.2)"> </text><text xml:space="preserve" font-family="Avenir-Light,Avenir" font-size="36.0" fill="#FEFFFF" transform="matrix(1.00, 0.00, -0.00, -1.00, 269.7, 522.2)">I</text><text xml:space="preserve" font-family="Avenir-Light,Avenir" font-size="36.0" fill="#FEFFFF" transform="matrix(1.00, 0.00, -0.00, -1.00, 279.1, 522.2)"> </text><text xml:space="preserve" font-family="Avenir-Light,Avenir" font-size="36.0" fill="#FEFFFF" transform="matrix(1.00, 0.00, -0.00, -1.00, 288.4, 522.2)">c</text><text xml:space="preserve" font-family="Avenir-Light,Avenir" font-size="36.0" fill="#FEFFFF" transform="matrix(1.00, 0.00, -0.00, -1.00, 305.8, 522.2)">h</text><text xml:space="preserve" font-family="Avenir-Light,Avenir" font-size="36.0" fill="#FEFFFF" transform="matrix(1.00, 0.00, -0.00, -1.00, 325.8, 522.2)">o</text><text xml:space="preserve" font-family="Avenir-Light,Avenir" font-size="36.0" fill="#FEFFFF" transform="matrix(1.00, 0.00, -0.00, -1.00, 347.2, 522.2)">o</text><text xml:space="preserve" font-family="Avenir-Light,Avenir" font-size="36.0" fill="#FEFFFF" transform="matrix(1.00, 0.00, -0.00, -1.00, 368.5, 522.2)">s</text><text xml:space="preserve" font-family="Avenir-Light,Avenir" font-size="36.0" fill="#FEFFFF" transform="matrix(1.00, 0.00, -0.00, -1.00, 383.9, 522.2)">e</text><text xml:space="preserve" font-family="Avenir-Light,Avenir" font-size="36.0" fill="#FEFFFF" transform="matrix(1.00, 0.00, -0.00, -1.00, 403.9, 522.2)"> </text><text xml:space="preserve" font-family="Avenir-Light,Avenir" font-size="36.0" fill="#FEFFFF" transform="matrix(1.00, 0.00, -0.00, -1.00, 413.3, 522.2)">w</text><text xml:space="preserve" font-family="Avenir-Light,Avenir" font-size="36.0" fill="#FEFFFF" transform="matrix(1.00, 0.00, -0.00, -1.00, 438.6, 522.2)">a</text><text xml:space="preserve" font-family="Avenir-Light,Avenir" font-size="36.0" fill="#FEFFFF" transform="matrix(1.00, 0.00, -0.00, -1.00, 457.3, 522.2)">s</text><text xml:space="preserve" font-family="Avenir-Light,Avenir" font-size="36.0" fill="#FEFFFF" transform="matrix(1.00, 0.00, -0.00, -1.00, 472.6, 522.2)"> </text><text xml:space="preserve" font-family="Avenir-Light,Avenir" font-size="36.0" fill="#FEFFFF" transform="matrix(1.00, 0.00, -0.00, -1.00, 482.0, 522.2)">a</text><text xml:space="preserve" font-family="Avenir-Light,Avenir" font-size="36.0" fill="#FEFFFF" transform="matrix(1.00, 0.00, -0.00, -1.00, 500.7, 522.2)">b</text><text xml:space="preserve" font-family="Avenir-Light,Avenir" font-size="36.0" fill="#FEFFFF" transform="matrix(1.00, 0.00, -0.00, -1.00, 522.7, 522.2)">o</text><text xml:space="preserve" font-family="Avenir-Light,Avenir" font-size="36.0" fill="#FEFFFF" transform="matrix(1.00, 0.00, -0.00, -1.00, 544.0, 522.2)">u</text><text xml:space="preserve" font-family="Avenir-Light,Avenir" font-size="36.0" fill="#FEFFFF" transform="matrix(1.00, 0.00, -0.00, -1.00, 564.1, 522.2)">t</text><text xml:space="preserve" font-family="Avenir-Light,Avenir" font-size="36.0" fill="#FEFFFF" transform="matrix(1.00, 0.00, -0.00, -1.00, 576.0, 522.2)"> </text><text xml:space="preserve" font-family="Avenir-Light,Avenir" font-size="36.0" fill="#FEFFFF" transform="matrix(1.00, 0.00, -0.00, -1.00, 585.4, 522.2)">c</text><text xml:space="preserve" font-family="Avenir-Light,Avenir" font-size="36.0" fill="#FEFFFF" transform="matrix(1.00, 0.00, -0.00, -1.00, 602.7, 522.2)">r</text><text xml:space="preserve" font-family="Avenir-Light,Avenir" font-size="36.0" fill="#FEFFFF" transform="matrix(1.00, 0.00, -0.00, -1.00, 614.7, 522.2)">a</text><text xml:space="preserve" font-family="Avenir-Light,Avenir" font-size="36.0" fill="#FEFFFF" transform="matrix(1.00, 0.00, -0.00, -1.00, 633.4, 522.2)">t</text><text xml:space="preserve" font-family="Avenir-Light,Avenir" font-size="36.0" fill="#FEFFFF" transform="matrix(1.00, 0.00, -0.00, -1.00, 645.4, 522.2)">e</text><text xml:space="preserve" font-family="Avenir-Light,Avenir" font-size="36.0" fill="#FEFFFF" transform="matrix(1.00, 0.00, -0.00, -1.00, 665.4, 522.2)">r</text><text xml:space="preserve" font-family="Avenir-Light,Avenir" font-size="36.0" fill="#FEFFFF" transform="matrix(1.00, 0.00, -0.00, -1.00, 677.4, 522.2)">s</text><text xml:space="preserve" font-family="Avenir-Light,Avenir" font-size="36.0" fill="#FEFFFF" transform="matrix(1.00, 0.00, -0.00, -1.00, 692.7, 522.2)"> </text><text xml:space="preserve" font-family="Avenir-Light,Avenir" font-size="36.0" fill="#FEFFFF" transform="matrix(1.00, 0.00, -0.00, -1.00, 702.1, 522.2)">t</text><text xml:space="preserve" font-family="Avenir-Light,Avenir" font-size="36.0" fill="#FEFFFF" transform="matrix(1.00, 0.00, -0.00, -1.00, 714.1, 522.2)">h</text><text xml:space="preserve" font-family="Avenir-Light,Avenir" font-size="36.0" fill="#FEFFFF" transform="matrix(1.00, 0.00, -0.00, -1.00, 734.1, 522.2)">a</text><text xml:space="preserve" font-family="Avenir-Light,Avenir" font-size="36.0" fill="#FEFFFF" transform="matrix(1.00, 0.00, -0.00, -1.00, 752.8, 522.2)">t</text><text xml:space="preserve" font-family="Avenir-Light,Avenir" font-size="36.0" fill="#FEFFFF" transform="matrix(1.00, 0.00, -0.00, -1.00, 764.8, 522.2)"> </text><text xml:space="preserve" font-family="Avenir-Light,Avenir" font-size="36.0" fill="#FEFFFF" transform="matrix(1.00, 0.00, -0.00, -1.00, 774.2, 522.2)">a</text><text xml:space="preserve" font-family="Avenir-Light,Avenir" font-size="36.0" fill="#FEFFFF" transform="matrix(1.00, 0.00, -0.00, -1.00, 792.8, 522.2)">p</text><text xml:space="preserve" font-family="Avenir-Light,Avenir" font-size="36.0" fill="#FEFFFF" transform="matrix(1.00, 0.00, -0.00, -1.00, 814.8, 522.2)">p</text><text xml:space="preserve" font-family="Avenir-Light,Avenir" font-size="36.0" fill="#FEFFFF" transform="matrix(1.00, 0.00, -0.00, -1.00, 836.8, 522.2)">e</text><text xml:space="preserve" font-family="Avenir-Light,Avenir" font-size="36.0" fill="#FEFFFF" transform="matrix(1.00, 0.00, -0.00, -1.00, 856.8, 522.2)">a</text><text xml:space="preserve" font-family="Avenir-Light,Avenir" font-size="36.0" fill="#FEFFFF" transform="matrix(1.00, 0.00, -0.00, -1.00, 875.5, 522.2)">r</text><text xml:space="preserve" font-family="Avenir-Light,Avenir" font-size="36.0" fill="#FEFFFF" transform="matrix(1.00, 0.00, -0.00, -1.00, 886.9, 522.2)">e</text><text xml:space="preserve" font-family="Avenir-Light,Avenir" font-size="36.0" fill="#FEFFFF" transform="matrix(1.00, 0.00, -0.00, -1.00, 906.9, 522.2)">d</text><text xml:space="preserve" font-family="Avenir-Light,Avenir" font-size="36.0" fill="#FEFFFF" transform="matrix(1.00, 0.00, -0.00, -1.00, 928.9, 522.2)"> </text><text xml:space="preserve" font-family="Avenir-Light,Avenir" font-size="36.0" fill="#FEFFFF" transform="matrix(1.00, 0.00, -0.00, -1.00, 938.2, 522.2)">i</text><text xml:space="preserve" font-family="Avenir-Light,Avenir" font-size="36.0" fill="#FEFFFF" transform="matrix(1.00, 0.00, -0.00, -1.00, 946.9, 522.2)">n</text><text xml:space="preserve" font-family="Avenir-Light,Avenir" font-size="36.0" fill="#FEFFFF" transform="matrix(1.00, 0.00, -0.00, -1.00, 966.9, 522.2)"> </text><text xml:space="preserve" font-family="Avenir-Light,Avenir" font-size="36.0" fill="#FEFFFF" transform="matrix(1.00, 0.00, -0.00, -1.00, 93.0, 473.2)">n</text><text xml:space="preserve" font-family="Avenir-Light,Avenir" font-size="36.0" fill="#FEFFFF" transform="matrix(1.00, 0.00, -0.00, -1.00, 113.0, 473.2)">o</text><text xml:space="preserve" font-family="Avenir-Light,Avenir" font-size="36.0" fill="#FEFFFF" transform="matrix(1.00, 0.00, -0.00, -1.00, 134.4, 473.2)">r</text><text xml:space="preserve" font-family="Avenir-Light,Avenir" font-size="36.0" fill="#FEFFFF" transform="matrix(1.00, 0.00, -0.00, -1.00, 146.4, 473.2)">t</text><text xml:space="preserve" font-family="Avenir-Light,Avenir" font-size="36.0" fill="#FEFFFF" transform="matrix(1.00, 0.00, -0.00, -1.00, 158.4, 473.2)">h</text><text xml:space="preserve" font-family="Avenir-Light,Avenir" font-size="36.0" fill="#FEFFFF" transform="matrix(1.00, 0.00, -0.00, -1.00, 178.4, 473.2)">e</text><text xml:space="preserve" font-family="Avenir-Light,Avenir" font-size="36.0" fill="#FEFFFF" transform="matrix(1.00, 0.00, -0.00, -1.00, 198.4, 473.2)">r</text><text xml:space="preserve" font-family="Avenir-Light,Avenir" font-size="36.0" fill="#FEFFFF" transform="matrix(1.00, 0.00, -0.00, -1.00, 210.4, 473.2)">n</text><text xml:space="preserve" font-family="Avenir-Light,Avenir" font-size="36.0" fill="#FEFFFF" transform="matrix(1.00, 0.00, -0.00, -1.00, 230.4, 473.2)"> </text><text xml:space="preserve" font-family="Avenir-Light,Avenir" font-size="36.0" fill="#FEFFFF" transform="matrix(1.00, 0.00, -0.00, -1.00, 239.8, 473.2)">S</text><text xml:space="preserve" font-family="Avenir-Light,Avenir" font-size="36.0" fill="#FEFFFF" transform="matrix(1.00, 0.00, -0.00, -1.00, 259.8, 473.2)">i</text><text xml:space="preserve" font-family="Avenir-Light,Avenir" font-size="36.0" fill="#FEFFFF" transform="matrix(1.00, 0.00, -0.00, -1.00, 268.5, 473.2)">b</text><text xml:space="preserve" font-family="Avenir-Light,Avenir" font-size="36.0" fill="#FEFFFF" transform="matrix(1.00, 0.00, -0.00, -1.00, 290.5, 473.2)">e</text><text xml:space="preserve" font-family="Avenir-Light,Avenir" font-size="36.0" fill="#FEFFFF" transform="matrix(1.00, 0.00, -0.00, -1.00, 310.5, 473.2)">r</text><text xml:space="preserve" font-family="Avenir-Light,Avenir" font-size="36.0" fill="#FEFFFF" transform="matrix(1.00, 0.00, -0.00, -1.00, 322.5, 473.2)">i</text><text xml:space="preserve" font-family="Avenir-Light,Avenir" font-size="36.0" fill="#FEFFFF" transform="matrix(1.00, 0.00, -0.00, -1.00, 331.1, 473.2)">a</text><text xml:space="preserve" font-family="Avenir-Light,Avenir" font-size="36.0" fill="#FEFFFF" transform="matrix(1.00, 0.00, -0.00, -1.00, 349.8, 473.2)">.</text><text xml:space="preserve" font-family="Avenir-Light,Avenir" font-size="36.0" fill="#FEFFFF" transform="matrix(1.00, 0.00, -0.00, -1.00, 359.1, 473.2)"> </text><text xml:space="preserve" font-family="Avenir-Light,Avenir" font-size="32.4" fill="#646363" transform="matrix(1.00, 0.00, -0.00, -1.00, 56.0, 383.4)">•</text><text xml:space="preserve" font-family="Avenir-Light,Avenir" font-size="36.0" fill="#FEFFFF" transform="matrix(1.00, 0.00, -0.00, -1.00, 93.0, 382.2)">T</text><text xml:space="preserve" font-family="Avenir-Light,Avenir" font-size="36.0" fill="#FEFFFF" transform="matrix(1.00, 0.00, -0.00, -1.00, 113.7, 382.2)">h</text><text xml:space="preserve" font-family="Avenir-Light,Avenir" font-size="36.0" fill="#FEFFFF" transform="matrix(1.00, 0.00, -0.00, -1.00, 133.7, 382.2)">e</text><text xml:space="preserve" font-family="Avenir-Light,Avenir" font-size="36.0" fill="#FEFFFF" transform="matrix(1.00, 0.00, -0.00, -1.00, 153.7, 382.2)"> </text><text xml:space="preserve" font-family="Avenir-Light,Avenir" font-size="36.0" fill="#FEFFFF" transform="matrix(1.00, 0.00, -0.00, -1.00, 163.1, 382.2)">p</text><text xml:space="preserve" font-family="Avenir-Light,Avenir" font-size="36.0" fill="#FEFFFF" transform="matrix(1.00, 0.00, -0.00, -1.00, 185.1, 382.2)">e</text><text xml:space="preserve" font-family="Avenir-Light,Avenir" font-size="36.0" fill="#FEFFFF" transform="matrix(1.00, 0.00, -0.00, -1.00, 205.1, 382.2)">r</text><text xml:space="preserve" font-family="Avenir-Light,Avenir" font-size="36.0" fill="#FEFFFF" transform="matrix(1.00, 0.00, -0.00, -1.00, 217.1, 382.2)">s</text><text xml:space="preserve" font-family="Avenir-Light,Avenir" font-size="36.0" fill="#FEFFFF" transform="matrix(1.00, 0.00, -0.00, -1.00, 232.4, 382.2)">o</text><text xml:space="preserve" font-family="Avenir-Light,Avenir" font-size="36.0" fill="#FEFFFF" transform="matrix(1.00, 0.00, -0.00, -1.00, 253.8, 382.2)">n</text><text xml:space="preserve" font-family="Avenir-Light,Avenir" font-size="36.0" fill="#FEFFFF" transform="matrix(1.00, 0.00, -0.00, -1.00, 273.8, 382.2)"> </text><text xml:space="preserve" font-family="Avenir-Light,Avenir" font-size="36.0" fill="#FEFFFF" transform="matrix(1.00, 0.00, -0.00, -1.00, 283.2, 382.2)">w</text><text xml:space="preserve" font-family="Avenir-Light,Avenir" font-size="36.0" fill="#FEFFFF" transform="matrix(1.00, 0.00, -0.00, -1.00, 308.5, 382.2)">h</text><text xml:space="preserve" font-family="Avenir-Light,Avenir" font-size="36.0" fill="#FEFFFF" transform="matrix(1.00, 0.00, -0.00, -1.00, 328.5, 382.2)">o</text><text xml:space="preserve" font-family="Avenir-Light,Avenir" font-size="36.0" fill="#FEFFFF" transform="matrix(1.00, 0.00, -0.00, -1.00, 349.9, 382.2)"> </text><text xml:space="preserve" font-family="Avenir-Light,Avenir" font-size="36.0" fill="#FEFFFF" transform="matrix(1.00, 0.00, -0.00, -1.00, 359.3, 382.2)">f</text><text xml:space="preserve" font-family="Avenir-Light,Avenir" font-size="36.0" fill="#FEFFFF" transform="matrix(1.00, 0.00, -0.00, -1.00, 369.9, 382.2)">o</text><text xml:space="preserve" font-family="Avenir-Light,Avenir" font-size="36.0" fill="#FEFFFF" transform="matrix(1.00, 0.00, -0.00, -1.00, 391.3, 382.2)">u</text><text xml:space="preserve" font-family="Avenir-Light,Avenir" font-size="36.0" fill="#FEFFFF" transform="matrix(1.00, 0.00, -0.00, -1.00, 411.3, 382.2)">n</text><text xml:space="preserve" font-family="Avenir-Light,Avenir" font-size="36.0" fill="#FEFFFF" transform="matrix(1.00, 0.00, -0.00, -1.00, 431.3, 382.2)">d</text><text xml:space="preserve" font-family="Avenir-Light,Avenir" font-size="36.0" fill="#FEFFFF" transform="matrix(1.00, 0.00, -0.00, -1.00, 453.3, 382.2)"> </text><text xml:space="preserve" font-family="Avenir-Light,Avenir" font-size="36.0" fill="#FEFFFF" transform="matrix(1.00, 0.00, -0.00, -1.00, 462.7, 382.2)">t</text><text xml:space="preserve" font-family="Avenir-Light,Avenir" font-size="36.0" fill="#FEFFFF" transform="matrix(1.00, 0.00, -0.00, -1.00, 474.7, 382.2)">h</text><text xml:space="preserve" font-family="Avenir-Light,Avenir" font-size="36.0" fill="#FEFFFF" transform="matrix(1.00, 0.00, -0.00, -1.00, 494.7, 382.2)">e</text><text xml:space="preserve" font-family="Avenir-Light,Avenir" font-size="36.0" fill="#FEFFFF" transform="matrix(1.00, 0.00, -0.00, -1.00, 514.7, 382.2)"> </text><text xml:space="preserve" font-family="Avenir-Light,Avenir" font-size="36.0" fill="#FEFFFF" transform="matrix(1.00, 0.00, -0.00, -1.00, 524.1, 382.2)">f</text><text xml:space="preserve" font-family="Avenir-Light,Avenir" font-size="36.0" fill="#FEFFFF" transform="matrix(1.00, 0.00, -0.00, -1.00, 534.8, 382.2)">i</text><text xml:space="preserve" font-family="Avenir-Light,Avenir" font-size="36.0" fill="#FEFFFF" transform="matrix(1.00, 0.00, -0.00, -1.00, 543.4, 382.2)">r</text><text xml:space="preserve" font-family="Avenir-Light,Avenir" font-size="36.0" fill="#FEFFFF" transform="matrix(1.00, 0.00, -0.00, -1.00, 555.4, 382.2)">s</text><text xml:space="preserve" font-family="Avenir-Light,Avenir" font-size="36.0" fill="#FEFFFF" transform="matrix(1.00, 0.00, -0.00, -1.00, 570.7, 382.2)">t</text><text xml:space="preserve" font-family="Avenir-Light,Avenir" font-size="36.0" fill="#FEFFFF" transform="matrix(1.00, 0.00, -0.00, -1.00, 582.7, 382.2)"> </text><text xml:space="preserve" font-family="Avenir-Light,Avenir" font-size="36.0" fill="#FEFFFF" transform="matrix(1.00, 0.00, -0.00, -1.00, 592.1, 382.2)">c</text><text xml:space="preserve" font-family="Avenir-Light,Avenir" font-size="36.0" fill="#FEFFFF" transform="matrix(1.00, 0.00, -0.00, -1.00, 609.4, 382.2)">r</text><text xml:space="preserve" font-family="Avenir-Light,Avenir" font-size="36.0" fill="#FEFFFF" transform="matrix(1.00, 0.00, -0.00, -1.00, 621.4, 382.2)">a</text><text xml:space="preserve" font-family="Avenir-Light,Avenir" font-size="36.0" fill="#FEFFFF" transform="matrix(1.00, 0.00, -0.00, -1.00, 640.1, 382.2)">t</text><text xml:space="preserve" font-family="Avenir-Light,Avenir" font-size="36.0" fill="#FEFFFF" transform="matrix(1.00, 0.00, -0.00, -1.00, 652.0, 382.2)">e</text><text xml:space="preserve" font-family="Avenir-Light,Avenir" font-size="36.0" fill="#FEFFFF" transform="matrix(1.00, 0.00, -0.00, -1.00, 672.1, 382.2)">r</text><text xml:space="preserve" font-family="Avenir-Light,Avenir" font-size="36.0" fill="#FEFFFF" transform="matrix(1.00, 0.00, -0.00, -1.00, 684.0, 382.2)"> </text><text xml:space="preserve" font-family="Avenir-Light,Avenir" font-size="36.0" fill="#FEFFFF" transform="matrix(1.00, 0.00, -0.00, -1.00, 693.4, 382.2)">w</text><text xml:space="preserve" font-family="Avenir-Light,Avenir" font-size="36.0" fill="#FEFFFF" transform="matrix(1.00, 0.00, -0.00, -1.00, 718.8, 382.2)">a</text><text xml:space="preserve" font-family="Avenir-Light,Avenir" font-size="36.0" fill="#FEFFFF" transform="matrix(1.00, 0.00, -0.00, -1.00, 737.4, 382.2)">s</text><text xml:space="preserve" font-family="Avenir-Light,Avenir" font-size="36.0" fill="#FEFFFF" transform="matrix(1.00, 0.00, -0.00, -1.00, 752.8, 382.2)"> </text><text xml:space="preserve" font-family="Avenir-Light,Avenir" font-size="36.0" fill="#FEFFFF" transform="matrix(1.00, 0.00, -0.00, -1.00, 762.1, 382.2)">a</text><text xml:space="preserve" font-family="Avenir-Light,Avenir" font-size="36.0" fill="#FEFFFF" transform="matrix(1.00, 0.00, -0.00, -1.00, 780.8, 382.2)">n</text><text xml:space="preserve" font-family="Avenir-Light,Avenir" font-size="36.0" fill="#FEFFFF" transform="matrix(1.00, 0.00, -0.00, -1.00, 800.8, 382.2)"> </text><text xml:space="preserve" font-family="Avenir-Light,Avenir" font-size="36.0" fill="#FEFFFF" transform="matrix(1.00, 0.00, -0.00, -1.00, 810.2, 382.2)">a</text><text xml:space="preserve" font-family="Avenir-Light,Avenir" font-size="36.0" fill="#FEFFFF" transform="matrix(1.00, 0.00, -0.00, -1.00, 828.9, 382.2)">i</text><text xml:space="preserve" font-family="Avenir-Light,Avenir" font-size="36.0" fill="#FEFFFF" transform="matrix(1.00, 0.00, -0.00, -1.00, 837.5, 382.2)">r</text><text xml:space="preserve" font-family="Avenir-Light,Avenir" font-size="36.0" fill="#FEFFFF" transform="matrix(1.00, 0.00, -0.00, -1.00, 849.5, 382.2)">p</text><text xml:space="preserve" font-family="Avenir-Light,Avenir" font-size="36.0" fill="#FEFFFF" transform="matrix(1.00, 0.00, -0.00, -1.00, 871.5, 382.2)">l</text><text xml:space="preserve" font-family="Avenir-Light,Avenir" font-size="36.0" fill="#FEFFFF" transform="matrix(1.00, 0.00, -0.00, -1.00, 880.1, 382.2)">a</text><text xml:space="preserve" font-family="Avenir-Light,Avenir" font-size="36.0" fill="#FEFFFF" transform="matrix(1.00, 0.00, -0.00, -1.00, 898.8, 382.2)">n</text><text xml:space="preserve" font-family="Avenir-Light,Avenir" font-size="36.0" fill="#FEFFFF" transform="matrix(1.00, 0.00, -0.00, -1.00, 918.8, 382.2)">e</text><text xml:space="preserve" font-family="Avenir-Light,Avenir" font-size="36.0" fill="#FEFFFF" transform="matrix(1.00, 0.00, -0.00, -1.00, 938.9, 382.2)"> </text><text xml:space="preserve" font-family="Avenir-Light,Avenir" font-size="36.0" fill="#FEFFFF" transform="matrix(1.00, 0.00, -0.00, -1.00, 93.0, 333.2)">p</text><text xml:space="preserve" font-family="Avenir-Light,Avenir" font-size="36.0" fill="#FEFFFF" transform="matrix(1.00, 0.00, -0.00, -1.00, 115.0, 333.2)">i</text><text xml:space="preserve" font-family="Avenir-Light,Avenir" font-size="36.0" fill="#FEFFFF" transform="matrix(1.00, 0.00, -0.00, -1.00, 123.6, 333.2)">l</text><text xml:space="preserve" font-family="Avenir-Light,Avenir" font-size="36.0" fill="#FEFFFF" transform="matrix(1.00, 0.00, -0.00, -1.00, 132.3, 333.2)">o</text><text xml:space="preserve" font-family="Avenir-Light,Avenir" font-size="36.0" fill="#FEFFFF" transform="matrix(1.00, 0.00, -0.00, -1.00, 153.7, 333.2)">t</text><text xml:space="preserve" font-family="Avenir-Light,Avenir" font-size="36.0" fill="#FEFFFF" transform="matrix(1.00, 0.00, -0.00, -1.00, 165.6, 333.2)"> </text><text xml:space="preserve" font-family="Avenir-Light,Avenir" font-size="36.0" fill="#FEFFFF" transform="matrix(1.00, 0.00, -0.00, -1.00, 175.0, 333.2)">w</text><text xml:space="preserve" font-family="Avenir-Light,Avenir" font-size="36.0" fill="#FEFFFF" transform="matrix(1.00, 0.00, -0.00, -1.00, 200.4, 333.2)">h</text><text xml:space="preserve" font-family="Avenir-Light,Avenir" font-size="36.0" fill="#FEFFFF" transform="matrix(1.00, 0.00, -0.00, -1.00, 220.4, 333.2)">o</text><text xml:space="preserve" font-family="Avenir-Light,Avenir" font-size="36.0" fill="#FEFFFF" transform="matrix(1.00, 0.00, -0.00, -1.00, 241.8, 333.2)"> </text><text xml:space="preserve" font-family="Avenir-Light,Avenir" font-size="36.0" fill="#FEFFFF" transform="matrix(1.00, 0.00, -0.00, -1.00, 251.1, 333.2)">t</text><text xml:space="preserve" font-family="Avenir-Light,Avenir" font-size="36.0" fill="#FEFFFF" transform="matrix(1.00, 0.00, -0.00, -1.00, 263.1, 333.2)">o</text><text xml:space="preserve" font-family="Avenir-Light,Avenir" font-size="36.0" fill="#FEFFFF" transform="matrix(1.00, 0.00, -0.00, -1.00, 284.5, 333.2)">o</text><text xml:space="preserve" font-family="Avenir-Light,Avenir" font-size="36.0" fill="#FEFFFF" transform="matrix(1.00, 0.00, -0.00, -1.00, 305.9, 333.2)">k</text><text xml:space="preserve" font-family="Avenir-Light,Avenir" font-size="36.0" fill="#FEFFFF" transform="matrix(1.00, 0.00, -0.00, -1.00, 323.2, 333.2)"> </text><text xml:space="preserve" font-family="Avenir-Light,Avenir" font-size="36.0" fill="#FEFFFF" transform="matrix(1.00, 0.00, -0.00, -1.00, 332.5, 333.2)">a</text><text xml:space="preserve" font-family="Avenir-Light,Avenir" font-size="36.0" fill="#FEFFFF" transform="matrix(1.00, 0.00, -0.00, -1.00, 351.2, 333.2)"> </text><text xml:space="preserve" font-family="Avenir-Light,Avenir" font-size="36.0" fill="#FEFFFF" transform="matrix(1.00, 0.00, -0.00, -1.00, 360.6, 333.2)">p</text><text xml:space="preserve" font-family="Avenir-Light,Avenir" font-size="36.0" fill="#FEFFFF" transform="matrix(1.00, 0.00, -0.00, -1.00, 382.6, 333.2)">i</text><text xml:space="preserve" font-family="Avenir-Light,Avenir" font-size="36.0" fill="#FEFFFF" transform="matrix(1.00, 0.00, -0.00, -1.00, 391.2, 333.2)">c</text><text xml:space="preserve" font-family="Avenir-Light,Avenir" font-size="36.0" fill="#FEFFFF" transform="matrix(1.00, 0.00, -0.00, -1.00, 408.5, 333.2)">t</text><text xml:space="preserve" font-family="Avenir-Light,Avenir" font-size="36.0" fill="#FEFFFF" transform="matrix(1.00, 0.00, -0.00, -1.00, 420.5, 333.2)">u</text><text xml:space="preserve" font-family="Avenir-Light,Avenir" font-size="36.0" fill="#FEFFFF" transform="matrix(1.00, 0.00, -0.00, -1.00, 440.5, 333.2)">r</text><text xml:space="preserve" font-family="Avenir-Light,Avenir" font-size="36.0" fill="#FEFFFF" transform="matrix(1.00, 0.00, -0.00, -1.00, 451.9, 333.2)">e</text><text xml:space="preserve" font-family="Avenir-Light,Avenir" font-size="36.0" fill="#FEFFFF" transform="matrix(1.00, 0.00, -0.00, -1.00, 471.9, 333.2)"> </text><text xml:space="preserve" font-family="Avenir-Light,Avenir" font-size="36.0" fill="#FEFFFF" transform="matrix(1.00, 0.00, -0.00, -1.00, 481.3, 333.2)">w</text><text xml:space="preserve" font-family="Avenir-Light,Avenir" font-size="36.0" fill="#FEFFFF" transform="matrix(1.00, 0.00, -0.00, -1.00, 506.6, 333.2)">h</text><text xml:space="preserve" font-family="Avenir-Light,Avenir" font-size="36.0" fill="#FEFFFF" transform="matrix(1.00, 0.00, -0.00, -1.00, 526.6, 333.2)">i</text><text xml:space="preserve" font-family="Avenir-Light,Avenir" font-size="36.0" fill="#FEFFFF" transform="matrix(1.00, 0.00, -0.00, -1.00, 535.3, 333.2)">c</text><text xml:space="preserve" font-family="Avenir-Light,Avenir" font-size="36.0" fill="#FEFFFF" transform="matrix(1.00, 0.00, -0.00, -1.00, 552.6, 333.2)">h</text><text xml:space="preserve" font-family="Avenir-Light,Avenir" font-size="36.0" fill="#FEFFFF" transform="matrix(1.00, 0.00, -0.00, -1.00, 572.6, 333.2)"> </text><text xml:space="preserve" font-family="Avenir-Light,Avenir" font-size="36.0" fill="#FEFFFF" transform="matrix(1.00, 0.00, -0.00, -1.00, 582.0, 333.2)">w</text><text xml:space="preserve" font-family="Avenir-Light,Avenir" font-size="36.0" fill="#FEFFFF" transform="matrix(1.00, 0.00, -0.00, -1.00, 607.3, 333.2)">e</text><text xml:space="preserve" font-family="Avenir-Light,Avenir" font-size="36.0" fill="#FEFFFF" transform="matrix(1.00, 0.00, -0.00, -1.00, 627.3, 333.2)">n</text><text xml:space="preserve" font-family="Avenir-Light,Avenir" font-size="36.0" fill="#FEFFFF" transform="matrix(1.00, 0.00, -0.00, -1.00, 647.3, 333.2)">t</text><text xml:space="preserve" font-family="Avenir-Light,Avenir" font-size="36.0" fill="#FEFFFF" transform="matrix(1.00, 0.00, -0.00, -1.00, 659.3, 333.2)"> </text><text xml:space="preserve" font-family="Avenir-Light,Avenir" font-size="36.0" fill="#FEFFFF" transform="matrix(1.00, 0.00, -0.00, -1.00, 668.7, 333.2)">v</text><text xml:space="preserve" font-family="Avenir-Light,Avenir" font-size="36.0" fill="#FEFFFF" transform="matrix(1.00, 0.00, -0.00, -1.00, 685.3, 333.2)">i</text><text xml:space="preserve" font-family="Avenir-Light,Avenir" font-size="36.0" fill="#FEFFFF" transform="matrix(1.00, 0.00, -0.00, -1.00, 694.0, 333.2)">r</text><text xml:space="preserve" font-family="Avenir-Light,Avenir" font-size="36.0" fill="#FEFFFF" transform="matrix(1.00, 0.00, -0.00, -1.00, 706.0, 333.2)">a</text><text xml:space="preserve" font-family="Avenir-Light,Avenir" font-size="36.0" fill="#FEFFFF" transform="matrix(1.00, 0.00, -0.00, -1.00, 724.7, 333.2)">l</text><text xml:space="preserve" font-family="Avenir-Light,Avenir" font-size="36.0" fill="#FEFFFF" transform="matrix(1.00, 0.00, -0.00, -1.00, 733.3, 333.2)"> </text><text xml:space="preserve" font-family="Avenir-Light,Avenir" font-size="36.0" fill="#FEFFFF" transform="matrix(1.00, 0.00, -0.00, -1.00, 742.7, 333.2)">o</text><text xml:space="preserve" font-family="Avenir-Light,Avenir" font-size="36.0" fill="#FEFFFF" transform="matrix(1.00, 0.00, -0.00, -1.00, 764.0, 333.2)">n</text><text xml:space="preserve" font-family="Avenir-Light,Avenir" font-size="36.0" fill="#FEFFFF" transform="matrix(1.00, 0.00, -0.00, -1.00, 784.1, 333.2)"> </text><text xml:space="preserve" font-family="Avenir-Light,Avenir" font-size="36.0" fill="#FEFFFF" transform="matrix(1.00, 0.00, -0.00, -1.00, 793.4, 333.2)">t</text><text xml:space="preserve" font-family="Avenir-Light,Avenir" font-size="36.0" fill="#FEFFFF" transform="matrix(1.00, 0.00, -0.00, -1.00, 805.4, 333.2)">h</text><text xml:space="preserve" font-family="Avenir-Light,Avenir" font-size="36.0" fill="#FEFFFF" transform="matrix(1.00, 0.00, -0.00, -1.00, 825.5, 333.2)">e</text><text xml:space="preserve" font-family="Avenir-Light,Avenir" font-size="36.0" fill="#FEFFFF" transform="matrix(1.00, 0.00, -0.00, -1.00, 845.5, 333.2)"> </text><text xml:space="preserve" font-family="Avenir-Light,Avenir" font-size="36.0" fill="#FEFFFF" transform="matrix(1.00, 0.00, -0.00, -1.00, 93.0, 284.2)">i</text><text xml:space="preserve" font-family="Avenir-Light,Avenir" font-size="36.0" fill="#FEFFFF" transform="matrix(1.00, 0.00, -0.00, -1.00, 101.6, 284.2)">n</text><text xml:space="preserve" font-family="Avenir-Light,Avenir" font-size="36.0" fill="#FEFFFF" transform="matrix(1.00, 0.00, -0.00, -1.00, 121.7, 284.2)">t</text><text xml:space="preserve" font-family="Avenir-Light,Avenir" font-size="36.0" fill="#FEFFFF" transform="matrix(1.00, 0.00, -0.00, -1.00, 133.6, 284.2)">e</text><text xml:space="preserve" font-family="Avenir-Light,Avenir" font-size="36.0" fill="#FEFFFF" transform="matrix(1.00, 0.00, -0.00, -1.00, 153.7, 284.2)">r</text><text xml:space="preserve" font-family="Avenir-Light,Avenir" font-size="36.0" fill="#FEFFFF" transform="matrix(1.00, 0.00, -0.00, -1.00, 165.6, 284.2)">n</text><text xml:space="preserve" font-family="Avenir-Light,Avenir" font-size="36.0" fill="#FEFFFF" transform="matrix(1.00, 0.00, -0.00, -1.00, 185.7, 284.2)">e</text><text xml:space="preserve" font-family="Avenir-Light,Avenir" font-size="36.0" fill="#FEFFFF" transform="matrix(1.00, 0.00, -0.00, -1.00, 205.7, 284.2)">t</text><text xml:space="preserve" font-family="Avenir-Light,Avenir" font-size="36.0" fill="#FEFFFF" transform="matrix(1.00, 0.00, -0.00, -1.00, 217.7, 284.2)"> </text><text xml:space="preserve" font-family="Avenir-Light,Avenir" font-size="36.0" fill="#FEFFFF" transform="matrix(1.00, 0.00, -0.00, -1.00, 227.0, 284.2)">a</text><text xml:space="preserve" font-family="Avenir-Light,Avenir" font-size="36.0" fill="#FEFFFF" transform="matrix(1.00, 0.00, -0.00, -1.00, 245.7, 284.2)">n</text><text xml:space="preserve" font-family="Avenir-Light,Avenir" font-size="36.0" fill="#FEFFFF" transform="matrix(1.00, 0.00, -0.00, -1.00, 265.7, 284.2)">d</text><text xml:space="preserve" font-family="Avenir-Light,Avenir" font-size="36.0" fill="#FEFFFF" transform="matrix(1.00, 0.00, -0.00, -1.00, 287.7, 284.2)"> </text><text xml:space="preserve" font-family="Avenir-Light,Avenir" font-size="36.0" fill="#FEFFFF" transform="matrix(1.00, 0.00, -0.00, -1.00, 297.1, 284.2)">t</text><text xml:space="preserve" font-family="Avenir-Light,Avenir" font-size="36.0" fill="#FEFFFF" transform="matrix(1.00, 0.00, -0.00, -1.00, 309.1, 284.2)">h</text><text xml:space="preserve" font-family="Avenir-Light,Avenir" font-size="36.0" fill="#FEFFFF" transform="matrix(1.00, 0.00, -0.00, -1.00, 329.1, 284.2)">e</text><text xml:space="preserve" font-family="Avenir-Light,Avenir" font-size="36.0" fill="#FEFFFF" transform="matrix(1.00, 0.00, -0.00, -1.00, 349.1, 284.2)">r</text><text xml:space="preserve" font-family="Avenir-Light,Avenir" font-size="36.0" fill="#FEFFFF" transform="matrix(1.00, 0.00, -0.00, -1.00, 360.5, 284.2)">e</text><text xml:space="preserve" font-family="Avenir-Light,Avenir" font-size="36.0" fill="#FEFFFF" transform="matrix(1.00, 0.00, -0.00, -1.00, 380.5, 284.2)"> </text><text xml:space="preserve" font-family="Avenir-Light,Avenir" font-size="36.0" fill="#FEFFFF" transform="matrix(1.00, 0.00, -0.00, -1.00, 389.9, 284.2)">w</text><text xml:space="preserve" font-family="Avenir-Light,Avenir" font-size="36.0" fill="#FEFFFF" transform="matrix(1.00, 0.00, -0.00, -1.00, 415.2, 284.2)">e</text><text xml:space="preserve" font-family="Avenir-Light,Avenir" font-size="36.0" fill="#FEFFFF" transform="matrix(1.00, 0.00, -0.00, -1.00, 435.2, 284.2)">r</text><text xml:space="preserve" font-family="Avenir-Light,Avenir" font-size="36.0" fill="#FEFFFF" transform="matrix(1.00, 0.00, -0.00, -1.00, 446.6, 284.2)">e</text><text xml:space="preserve" font-family="Avenir-Light,Avenir" font-size="36.0" fill="#FEFFFF" transform="matrix(1.00, 0.00, -0.00, -1.00, 466.6, 284.2)"> </text><text xml:space="preserve" font-family="Avenir-Light,Avenir" font-size="36.0" fill="#FEFFFF" transform="matrix(1.00, 0.00, -0.00, -1.00, 475.9, 284.2)">m</text><text xml:space="preserve" font-family="Avenir-Light,Avenir" font-size="36.0" fill="#FEFFFF" transform="matrix(1.00, 0.00, -0.00, -1.00, 506.6, 284.2)">a</text><text xml:space="preserve" font-family="Avenir-Light,Avenir" font-size="36.0" fill="#FEFFFF" transform="matrix(1.00, 0.00, -0.00, -1.00, 525.3, 284.2)">n</text><text xml:space="preserve" font-family="Avenir-Light,Avenir" font-size="36.0" fill="#FEFFFF" transform="matrix(1.00, 0.00, -0.00, -1.00, 545.3, 284.2)">y</text><text xml:space="preserve" font-family="Avenir-Light,Avenir" font-size="36.0" fill="#FEFFFF" transform="matrix(1.00, 0.00, -0.00, -1.00, 562.0, 284.2)"> </text><text xml:space="preserve" font-family="Avenir-Light,Avenir" font-size="36.0" fill="#FEFFFF" transform="matrix(1.00, 0.00, -0.00, -1.00, 571.3, 284.2)">t</text><text xml:space="preserve" font-family="Avenir-Light,Avenir" font-size="36.0" fill="#FEFFFF" transform="matrix(1.00, 0.00, -0.00, -1.00, 583.4, 284.2)">h</text><text xml:space="preserve" font-family="Avenir-Light,Avenir" font-size="36.0" fill="#FEFFFF" transform="matrix(1.00, 0.00, -0.00, -1.00, 603.4, 284.2)">e</text><text xml:space="preserve" font-family="Avenir-Light,Avenir" font-size="36.0" fill="#FEFFFF" transform="matrix(1.00, 0.00, -0.00, -1.00, 623.4, 284.2)">o</text><text xml:space="preserve" font-family="Avenir-Light,Avenir" font-size="36.0" fill="#FEFFFF" transform="matrix(1.00, 0.00, -0.00, -1.00, 644.8, 284.2)">r</text><text xml:space="preserve" font-family="Avenir-Light,Avenir" font-size="36.0" fill="#FEFFFF" transform="matrix(1.00, 0.00, -0.00, -1.00, 656.8, 284.2)">i</text><text xml:space="preserve" font-family="Avenir-Light,Avenir" font-size="36.0" fill="#FEFFFF" transform="matrix(1.00, 0.00, -0.00, -1.00, 665.4, 284.2)">e</text><text xml:space="preserve" font-family="Avenir-Light,Avenir" font-size="36.0" fill="#FEFFFF" transform="matrix(1.00, 0.00, -0.00, -1.00, 685.4, 284.2)">s</text><text xml:space="preserve" font-family="Avenir-Light,Avenir" font-size="36.0" fill="#FEFFFF" transform="matrix(1.00, 0.00, -0.00, -1.00, 700.8, 284.2)"> </text><text xml:space="preserve" font-family="Avenir-Light,Avenir" font-size="36.0" fill="#FEFFFF" transform="matrix(1.00, 0.00, -0.00, -1.00, 710.1, 284.2)">a</text><text xml:space="preserve" font-family="Avenir-Light,Avenir" font-size="36.0" fill="#FEFFFF" transform="matrix(1.00, 0.00, -0.00, -1.00, 728.8, 284.2)">b</text><text xml:space="preserve" font-family="Avenir-Light,Avenir" font-size="36.0" fill="#FEFFFF" transform="matrix(1.00, 0.00, -0.00, -1.00, 750.8, 284.2)">o</text><text xml:space="preserve" font-family="Avenir-Light,Avenir" font-size="36.0" fill="#FEFFFF" transform="matrix(1.00, 0.00, -0.00, -1.00, 772.2, 284.2)">u</text><text xml:space="preserve" font-family="Avenir-Light,Avenir" font-size="36.0" fill="#FEFFFF" transform="matrix(1.00, 0.00, -0.00, -1.00, 792.2, 284.2)">t</text><text xml:space="preserve" font-family="Avenir-Light,Avenir" font-size="36.0" fill="#FEFFFF" transform="matrix(1.00, 0.00, -0.00, -1.00, 804.2, 284.2)"> </text><text xml:space="preserve" font-family="Avenir-Light,Avenir" font-size="36.0" fill="#FEFFFF" transform="matrix(1.00, 0.00, -0.00, -1.00, 813.5, 284.2)">h</text><text xml:space="preserve" font-family="Avenir-Light,Avenir" font-size="36.0" fill="#FEFFFF" transform="matrix(1.00, 0.00, -0.00, -1.00, 833.6, 284.2)">o</text><text xml:space="preserve" font-family="Avenir-Light,Avenir" font-size="36.0" fill="#FEFFFF" transform="matrix(1.00, 0.00, -0.00, -1.00, 854.9, 284.2)">w</text><text xml:space="preserve" font-family="Avenir-Light,Avenir" font-size="36.0" fill="#FEFFFF" transform="matrix(1.00, 0.00, -0.00, -1.00, 880.3, 284.2)"> </text><text xml:space="preserve" font-family="Avenir-Light,Avenir" font-size="36.0" fill="#FEFFFF" transform="matrix(1.00, 0.00, -0.00, -1.00, 889.6, 284.2)">i</text><text xml:space="preserve" font-family="Avenir-Light,Avenir" font-size="36.0" fill="#FEFFFF" transform="matrix(1.00, 0.00, -0.00, -1.00, 898.3, 284.2)">t</text><text xml:space="preserve" font-family="Avenir-Light,Avenir" font-size="36.0" fill="#FEFFFF" transform="matrix(1.00, 0.00, -0.00, -1.00, 910.3, 284.2)"> </text><text xml:space="preserve" font-family="Avenir-Light,Avenir" font-size="36.0" fill="#FEFFFF" transform="matrix(1.00, 0.00, -0.00, -1.00, 93.0, 235.2)">h</text><text xml:space="preserve" font-family="Avenir-Light,Avenir" font-size="36.0" fill="#FEFFFF" transform="matrix(1.00, 0.00, -0.00, -1.00, 113.0, 235.2)">a</text><text xml:space="preserve" font-family="Avenir-Light,Avenir" font-size="36.0" fill="#FEFFFF" transform="matrix(1.00, 0.00, -0.00, -1.00, 131.7, 235.2)">p</text><text xml:space="preserve" font-family="Avenir-Light,Avenir" font-size="36.0" fill="#FEFFFF" transform="matrix(1.00, 0.00, -0.00, -1.00, 153.7, 235.2)">p</text><text xml:space="preserve" font-family="Avenir-Light,Avenir" font-size="36.0" fill="#FEFFFF" transform="matrix(1.00, 0.00, -0.00, -1.00, 175.7, 235.2)">e</text><text xml:space="preserve" font-family="Avenir-Light,Avenir" font-size="36.0" fill="#FEFFFF" transform="matrix(1.00, 0.00, -0.00, -1.00, 195.7, 235.2)">n</text><text xml:space="preserve" font-family="Avenir-Light,Avenir" font-size="36.0" fill="#FEFFFF" transform="matrix(1.00, 0.00, -0.00, -1.00, 215.7, 235.2)">e</text><text xml:space="preserve" font-family="Avenir-Light,Avenir" font-size="36.0" fill="#FEFFFF" transform="matrix(1.00, 0.00, -0.00, -1.00, 235.7, 235.2)">d</text><text xml:space="preserve" font-family="Avenir-Light,Avenir" font-size="36.0" fill="#FEFFFF" transform="matrix(1.00, 0.00, -0.00, -1.00, 257.7, 235.2)">.</text><text xml:space="preserve" font-family="Avenir-Light,Avenir" font-size="36.0" fill="#FEFFFF" transform="matrix(1.00, 0.00, -0.00, -1.00, 267.1, 235.2)"> </text><text xml:space="preserve" font-family="Avenir-Light,Avenir" font-size="32.4" fill="#646363" transform="matrix(1.00, 0.00, -0.00, -1.00, 56.0, 145.4)">•</text><text xml:space="preserve" font-family="Avenir-Light,Avenir" font-size="36.0" fill="#FEFFFF" transform="matrix(1.00, 0.00, -0.00, -1.00, 93.0, 144.2)">T</text><text xml:space="preserve" font-family="Avenir-Light,Avenir" font-size="36.0" fill="#FEFFFF" transform="matrix(1.00, 0.00, -0.00, -1.00, 113.7, 144.2)">h</text><text xml:space="preserve" font-family="Avenir-Light,Avenir" font-size="36.0" fill="#FEFFFF" transform="matrix(1.00, 0.00, -0.00, -1.00, 133.7, 144.2)">e</text><text xml:space="preserve" font-family="Avenir-Light,Avenir" font-size="36.0" fill="#FEFFFF" transform="matrix(1.00, 0.00, -0.00, -1.00, 153.7, 144.2)"> </text><text xml:space="preserve" font-family="Avenir-Light,Avenir" font-size="36.0" fill="#FEFFFF" transform="matrix(1.00, 0.00, -0.00, -1.00, 163.1, 144.2)">c</text><text xml:space="preserve" font-family="Avenir-Light,Avenir" font-size="36.0" fill="#FEFFFF" transform="matrix(1.00, 0.00, -0.00, -1.00, 180.4, 144.2)">r</text><text xml:space="preserve" font-family="Avenir-Light,Avenir" font-size="36.0" fill="#FEFFFF" transform="matrix(1.00, 0.00, -0.00, -1.00, 192.4, 144.2)">a</text><text xml:space="preserve" font-family="Avenir-Light,Avenir" font-size="36.0" fill="#FEFFFF" transform="matrix(1.00, 0.00, -0.00, -1.00, 211.0, 144.2)">t</text><text xml:space="preserve" font-family="Avenir-Light,Avenir" font-size="36.0" fill="#FEFFFF" transform="matrix(1.00, 0.00, -0.00, -1.00, 223.0, 144.2)">e</text><text xml:space="preserve" font-family="Avenir-Light,Avenir" font-size="36.0" fill="#FEFFFF" transform="matrix(1.00, 0.00, -0.00, -1.00, 243.0, 144.2)">r</text><text xml:space="preserve" font-family="Avenir-Light,Avenir" font-size="36.0" fill="#FEFFFF" transform="matrix(1.00, 0.00, -0.00, -1.00, 255.0, 144.2)">s</text><text xml:space="preserve" font-family="Avenir-Light,Avenir" font-size="36.0" fill="#FEFFFF" transform="matrix(1.00, 0.00, -0.00, -1.00, 270.4, 144.2)"> </text><text xml:space="preserve" font-family="Avenir-Light,Avenir" font-size="36.0" fill="#FEFFFF" transform="matrix(1.00, 0.00, -0.00, -1.00, 279.7, 144.2)">w</text><text xml:space="preserve" font-family="Avenir-Light,Avenir" font-size="36.0" fill="#FEFFFF" transform="matrix(1.00, 0.00, -0.00, -1.00, 305.1, 144.2)">e</text><text xml:space="preserve" font-family="Avenir-Light,Avenir" font-size="36.0" fill="#FEFFFF" transform="matrix(1.00, 0.00, -0.00, -1.00, 325.1, 144.2)">r</text><text xml:space="preserve" font-family="Avenir-Light,Avenir" font-size="36.0" fill="#FEFFFF" transform="matrix(1.00, 0.00, -0.00, -1.00, 336.4, 144.2)">e</text><text xml:space="preserve" font-family="Avenir-Light,Avenir" font-size="36.0" fill="#FEFFFF" transform="matrix(1.00, 0.00, -0.00, -1.00, 356.4, 144.2)"> </text><text xml:space="preserve" font-family="Avenir-Light,Avenir" font-size="36.0" fill="#FEFFFF" transform="matrix(1.00, 0.00, -0.00, -1.00, 365.8, 144.2)">d</text><text xml:space="preserve" font-family="Avenir-Light,Avenir" font-size="36.0" fill="#FEFFFF" transform="matrix(1.00, 0.00, -0.00, -1.00, 387.8, 144.2)">i</text><text xml:space="preserve" font-family="Avenir-Light,Avenir" font-size="36.0" fill="#FEFFFF" transform="matrix(1.00, 0.00, -0.00, -1.00, 396.5, 144.2)">s</text><text xml:space="preserve" font-family="Avenir-Light,Avenir" font-size="36.0" fill="#FEFFFF" transform="matrix(1.00, 0.00, -0.00, -1.00, 411.8, 144.2)">c</text><text xml:space="preserve" font-family="Avenir-Light,Avenir" font-size="36.0" fill="#FEFFFF" transform="matrix(1.00, 0.00, -0.00, -1.00, 429.1, 144.2)">o</text><text xml:space="preserve" font-family="Avenir-Light,Avenir" font-size="36.0" fill="#FEFFFF" transform="matrix(1.00, 0.00, -0.00, -1.00, 450.5, 144.2)">v</text><text xml:space="preserve" font-family="Avenir-Light,Avenir" font-size="36.0" fill="#FEFFFF" transform="matrix(1.00, 0.00, -0.00, -1.00, 467.2, 144.2)">e</text><text xml:space="preserve" font-family="Avenir-Light,Avenir" font-size="36.0" fill="#FEFFFF" transform="matrix(1.00, 0.00, -0.00, -1.00, 487.2, 144.2)">r</text><text xml:space="preserve" font-family="Avenir-Light,Avenir" font-size="36.0" fill="#FEFFFF" transform="matrix(1.00, 0.00, -0.00, -1.00, 498.5, 144.2)">e</text><text xml:space="preserve" font-family="Avenir-Light,Avenir" font-size="36.0" fill="#FEFFFF" transform="matrix(1.00, 0.00, -0.00, -1.00, 518.6, 144.2)">d</text><text xml:space="preserve" font-family="Avenir-Light,Avenir" font-size="36.0" fill="#FEFFFF" transform="matrix(1.00, 0.00, -0.00, -1.00, 540.6, 144.2)"> </text><text xml:space="preserve" font-family="Avenir-Light,Avenir" font-size="36.0" fill="#FEFFFF" transform="matrix(1.00, 0.00, -0.00, -1.00, 549.9, 144.2)">m</text><text xml:space="preserve" font-family="Avenir-Light,Avenir" font-size="36.0" fill="#FEFFFF" transform="matrix(1.00, 0.00, -0.00, -1.00, 580.6, 144.2)">i</text><text xml:space="preserve" font-family="Avenir-Light,Avenir" font-size="36.0" fill="#FEFFFF" transform="matrix(1.00, 0.00, -0.00, -1.00, 589.2, 144.2)">d</text><text xml:space="preserve" font-family="Avenir-Light,Avenir" font-size="36.0" fill="#FEFFFF" transform="matrix(1.00, 0.00, -0.00, -1.00, 611.2, 144.2)"> </text><text xml:space="preserve" font-family="Avenir-Light,Avenir" font-size="36.0" fill="#FEFFFF" transform="matrix(1.00, 0.00, -0.00, -1.00, 620.6, 144.2)">J</text><text xml:space="preserve" font-family="Avenir-Light,Avenir" font-size="36.0" fill="#FEFFFF" transform="matrix(1.00, 0.00, -0.00, -1.00, 637.9, 144.2)">u</text><text xml:space="preserve" font-family="Avenir-Light,Avenir" font-size="36.0" fill="#FEFFFF" transform="matrix(1.00, 0.00, -0.00, -1.00, 657.9, 144.2)">l</text><text xml:space="preserve" font-family="Avenir-Light,Avenir" font-size="36.0" fill="#FEFFFF" transform="matrix(1.00, 0.00, -0.00, -1.00, 666.6, 144.2)">y</text><text xml:space="preserve" font-family="Avenir-Light,Avenir" font-size="36.0" fill="#FEFFFF" transform="matrix(1.00, 0.00, -0.00, -1.00, 679.9, 144.2)">.</text></g></svg>